<?xml version="1.0" encoding="UTF-8"?>
<!DOCTYPE svg PUBLIC "-//W3C//DTD SVG 1.1//EN" "http://www.w3.org/Graphics/SVG/1.1/DTD/svg11.dtd">
<!-- Creator: CorelDRAW 2018 (64-Bit) -->
<svg xmlns="http://www.w3.org/2000/svg" xml:space="preserve" width="41.292mm" height="73.3851mm" version="1.1" style="shape-rendering:geometricPrecision; text-rendering:geometricPrecision; image-rendering:optimizeQuality; fill-rule:evenodd; clip-rule:evenodd"
viewBox="0 0 3133.22 5568.43"
 xmlns:xlink="http://www.w3.org/1999/xlink">
 <defs>
  <style type="text/css">
   <![CDATA[
    .fil0 {fill:#e42424}
   ]]>
  </style>
 </defs>
 <g id="Слой_x0020_1">
  <metadata id="CorelCorpID_0Corel-Layer"/>
  <g id="_1179342192">
   <path class="fil0" d="M3018.31 0l0.01 0c5.06,0 9.2,4.14 9.2,9.2 0,36.98 3.81,105.55 31.8,130.69 18.71,16.78 41.22,20.85 64.7,20.85 5.06,0 9.2,4.15 9.2,9.2l0 0c0,5.06 -4.14,9.21 -9.2,9.21 -24.06,0 -45.36,4.33 -64.81,21.39 -28.43,24.94 -31.69,93.26 -31.69,130.15 0,5.05 -4.14,9.2 -9.2,9.2l-0.01 0c-5.05,0 -9.2,-4.14 -9.2,-9.2 0,-36.98 -3.82,-105.56 -31.82,-130.69 -18.74,-16.79 -41.18,-20.84 -64.68,-20.84 -5.05,0 -9.21,-4.15 -9.21,-9.21l0 0c0,-5.06 4.14,-9.2 9.21,-9.2 24.03,0 45.36,-4.35 64.79,-21.4 28.42,-24.93 31.71,-93.26 31.71,-130.15 0,-5.07 4.14,-9.2 9.2,-9.2z"/>
   <path class="fil0" d="M1856.95 1161.36l0.01 0c5.06,0 9.2,4.14 9.2,9.2 0,36.98 3.81,105.55 31.81,130.69 18.71,16.78 41.22,20.85 64.7,20.85 5.06,0 9.19,4.16 9.19,9.2l0 0c0,5.07 -4.14,9.21 -9.19,9.21 -24.06,0 -45.36,4.33 -64.82,21.39 -28.42,24.94 -31.69,93.26 -31.69,130.15 0,5.05 -4.14,9.2 -9.2,9.2l-0.01 0c-5.05,0 -9.2,-4.13 -9.2,-9.2 0,-36.97 -3.82,-105.56 -31.82,-130.69 -18.73,-16.79 -41.18,-20.84 -64.68,-20.84 -5.05,0 -9.2,-4.14 -9.2,-9.21l0 0c0,-5.06 4.14,-9.2 9.2,-9.2 24.03,0 45.36,-4.35 64.79,-21.39 28.43,-24.94 31.71,-93.26 31.71,-130.16 0,-5.07 4.14,-9.2 9.2,-9.2z"/>
   <path class="fil0" d="M3018.31 1161.36l0.01 0c5.06,0 9.2,4.14 9.2,9.2 0,36.98 3.81,105.55 31.8,130.69 18.71,16.78 41.22,20.85 64.7,20.85 5.06,0 9.2,4.16 9.2,9.2l0 0c0,5.07 -4.14,9.21 -9.2,9.21 -24.06,0 -45.36,4.33 -64.81,21.39 -28.43,24.94 -31.69,93.26 -31.69,130.15 0,5.05 -4.14,9.2 -9.2,9.2l-0.01 0c-5.05,0 -9.2,-4.13 -9.2,-9.2 0,-36.97 -3.82,-105.56 -31.82,-130.69 -18.74,-16.79 -41.18,-20.84 -64.68,-20.84 -5.05,0 -9.21,-4.14 -9.21,-9.21l0 0c0,-5.06 4.14,-9.2 9.21,-9.2 24.03,0 45.36,-4.35 64.79,-21.39 28.42,-24.94 31.71,-93.26 31.71,-130.16 0,-5.07 4.14,-9.2 9.2,-9.2z"/>
   <path class="fil0" d="M2437.63 1194.07l0.01 0c4.09,0 7.43,3.35 7.43,7.43 0,29.87 3.08,85.24 25.68,105.55 15.12,13.54 33.29,16.83 52.25,16.83 4.08,0 7.43,3.35 7.43,7.43l0 0c0,4.09 -3.35,7.44 -7.43,7.44 -19.42,0 -36.63,3.5 -52.33,17.28 -22.97,20.14 -25.6,75.31 -25.6,105.09 0,4.09 -3.35,7.44 -7.43,7.44l-0.01 0c-4.09,0 -7.43,-3.35 -7.43,-7.44 0,-29.85 -3.09,-85.24 -25.69,-105.53 -15.15,-13.56 -33.27,-16.85 -52.25,-16.85 -4.07,0 -7.43,-3.35 -7.43,-7.44l0 0c0,-4.09 3.34,-7.43 7.43,-7.43 19.42,0 36.64,-3.51 52.33,-17.28 22.95,-20.13 25.61,-75.3 25.61,-105.1 0,-4.08 3.34,-7.43 7.43,-7.43z"/>
   <path class="fil0" d="M695.59 2322.72l0.01 0c5.06,0 9.2,4.15 9.2,9.21 0,36.98 3.81,105.54 31.8,130.69 18.71,16.78 41.22,20.85 64.71,20.85 5.05,0 9.19,4.16 9.19,9.2l0 0c0,5.07 -4.14,9.21 -9.19,9.21 -24.06,0 -45.37,4.33 -64.82,21.39 -28.42,24.94 -31.69,93.26 -31.69,130.15 0,5.05 -4.14,9.2 -9.2,9.2l-0.01 0c-5.05,0 -9.2,-4.14 -9.2,-9.2 0,-36.97 -3.82,-105.56 -31.82,-130.69 -18.74,-16.79 -41.18,-20.84 -64.68,-20.84 -5.05,0 -9.2,-4.14 -9.2,-9.21l0 0c0,-5.06 4.13,-9.2 9.2,-9.2 24.03,0 45.36,-4.34 64.79,-21.39 28.43,-24.94 31.71,-93.26 31.71,-130.15 0,-5.08 4.14,-9.21 9.2,-9.21z"/>
   <path class="fil0" d="M1856.95 2322.72l0.01 0c5.06,0 9.2,4.15 9.2,9.21 0,36.98 3.81,105.54 31.81,130.69 18.71,16.78 41.22,20.85 64.7,20.85 5.06,0 9.19,4.16 9.19,9.2l0 0c0,5.07 -4.14,9.21 -9.19,9.21 -24.06,0 -45.36,4.33 -64.82,21.39 -28.42,24.94 -31.69,93.26 -31.69,130.15 0,5.05 -4.14,9.2 -9.2,9.2l-0.01 0c-5.05,0 -9.2,-4.14 -9.2,-9.2 0,-36.97 -3.82,-105.56 -31.82,-130.69 -18.73,-16.79 -41.18,-20.84 -64.68,-20.84 -5.05,0 -9.2,-4.14 -9.2,-9.21l0 0c0,-5.06 4.14,-9.2 9.2,-9.2 24.03,0 45.36,-4.34 64.79,-21.39 28.43,-24.94 31.71,-93.26 31.71,-130.15 0,-5.08 4.14,-9.21 9.2,-9.21z"/>
   <path class="fil0" d="M3018.31 2322.72l0.01 0c5.06,0 9.2,4.15 9.2,9.21 0,36.98 3.81,105.54 31.8,130.69 18.71,16.78 41.22,20.85 64.7,20.85 5.06,0 9.2,4.16 9.2,9.2l0 0c0,5.07 -4.14,9.21 -9.2,9.21 -24.06,0 -45.36,4.33 -64.81,21.39 -28.43,24.94 -31.69,93.26 -31.69,130.15 0,5.05 -4.14,9.2 -9.2,9.2l-0.01 0c-5.05,0 -9.2,-4.14 -9.2,-9.2 0,-36.97 -3.82,-105.56 -31.82,-130.69 -18.74,-16.79 -41.18,-20.84 -64.68,-20.84 -5.05,0 -9.21,-4.14 -9.21,-9.21l0 0c0,-5.06 4.14,-9.2 9.21,-9.2 24.03,0 45.36,-4.34 64.79,-21.39 28.42,-24.94 31.71,-93.26 31.71,-130.15 0,-5.08 4.14,-9.21 9.2,-9.21z"/>
   <path class="fil0" d="M1276.27 2355.44l0.01 0c4.09,0 7.43,3.35 7.43,7.42 0,29.87 3.08,85.24 25.69,105.55 15.12,13.54 33.28,16.83 52.25,16.83 4.07,0 7.42,3.35 7.42,7.44l0 0c0,4.09 -3.35,7.44 -7.42,7.44 -19.43,0 -36.63,3.5 -52.33,17.27 -22.97,20.15 -25.6,75.31 -25.6,105.09 0,4.09 -3.35,7.44 -7.43,7.44l-0.01 0c-4.09,0 -7.43,-3.35 -7.43,-7.44 0,-29.84 -3.08,-85.24 -25.69,-105.53 -15.15,-13.56 -33.27,-16.84 -52.24,-16.84 -4.07,0 -7.44,-3.35 -7.44,-7.44l0 0c0,-4.09 3.35,-7.44 7.44,-7.44 19.41,0 36.63,-3.51 52.33,-17.28 22.95,-20.13 25.6,-75.3 25.6,-105.1 0,-4.07 3.34,-7.42 7.43,-7.42z"/>
   <path class="fil0" d="M2437.63 2355.44l0.01 0c4.09,0 7.43,3.35 7.43,7.42 0,29.87 3.08,85.24 25.68,105.55 15.12,13.54 33.29,16.83 52.25,16.83 4.08,0 7.43,3.35 7.43,7.44l0 0c0,4.09 -3.35,7.44 -7.43,7.44 -19.42,0 -36.63,3.5 -52.33,17.27 -22.97,20.15 -25.6,75.31 -25.6,105.09 0,4.09 -3.35,7.44 -7.43,7.44l-0.01 0c-4.09,0 -7.43,-3.35 -7.43,-7.44 0,-29.84 -3.09,-85.24 -25.69,-105.53 -15.15,-13.56 -33.27,-16.84 -52.25,-16.84 -4.07,0 -7.43,-3.35 -7.43,-7.44l0 0c0,-4.09 3.34,-7.44 7.43,-7.44 19.42,0 36.64,-3.51 52.33,-17.28 22.95,-20.13 25.61,-75.3 25.61,-105.1 0,-4.07 3.34,-7.42 7.43,-7.42z"/>
   <path class="fil0" d="M2437.62 920.59l0.01 0c5.06,0 9.2,-4.14 9.2,-9.2 0,-36.98 3.81,-105.55 31.8,-130.69 18.72,-16.78 41.22,-20.85 64.71,-20.85 5.06,0 9.19,-4.16 9.19,-9.2l0 0c0,-5.07 -4.14,-9.21 -9.19,-9.21 -24.06,0 -45.36,-4.33 -64.82,-21.39 -28.42,-24.94 -31.69,-93.26 -31.69,-130.15 0,-5.05 -4.14,-9.2 -9.2,-9.2l-0.01 0c-5.05,0 -9.2,4.13 -9.2,9.2 0,36.97 -3.82,105.56 -31.82,130.69 -18.73,16.79 -41.18,20.84 -64.68,20.84 -5.05,0 -9.2,4.14 -9.2,9.21l0 0c0,5.06 4.14,9.2 9.2,9.2 24.03,0 45.36,4.34 64.79,21.39 28.43,24.94 31.71,93.26 31.71,130.16 0,5.07 4.14,9.2 9.2,9.2z"/>
   <path class="fil0" d="M3018.31 887.87l0.02 0c4.09,0 7.42,-3.35 7.42,-7.42 0,-29.87 3.08,-85.24 25.69,-105.55 15.12,-13.54 33.28,-16.83 52.25,-16.83 4.08,0 7.43,-3.35 7.43,-7.44l0 0c0,-4.09 -3.35,-7.44 -7.43,-7.44 -19.43,0 -36.63,-3.5 -52.33,-17.27 -22.96,-20.15 -25.6,-75.31 -25.6,-105.09 0,-4.09 -3.35,-7.44 -7.42,-7.44l-0.02 0c-4.09,0 -7.42,3.35 -7.42,7.44 0,29.84 -3.09,85.24 -25.69,105.53 -15.15,13.56 -33.27,16.84 -52.24,16.84 -4.07,0 -7.43,3.35 -7.43,7.44l0 0c0,4.09 3.34,7.44 7.43,7.44 19.41,0 36.64,3.51 52.33,17.28 22.95,20.13 25.61,75.3 25.61,105.1 0,4.07 3.33,7.42 7.42,7.42z"/>
   <path class="fil0" d="M1276.26 2081.95l0.02 0c5.06,0 9.2,-4.14 9.2,-9.2 0,-36.98 3.81,-105.55 31.8,-130.69 18.71,-16.78 41.22,-20.85 64.7,-20.85 5.06,0 9.2,-4.15 9.2,-9.2l0 0c0,-5.07 -4.14,-9.21 -9.2,-9.21 -24.06,0 -45.36,-4.33 -64.81,-21.39 -28.43,-24.94 -31.69,-93.26 -31.69,-130.15 0,-5.05 -4.14,-9.2 -9.2,-9.2l-0.02 0c-5.05,0 -9.19,4.13 -9.19,9.2 0,36.97 -3.82,105.56 -31.82,130.69 -18.74,16.79 -41.18,20.84 -64.69,20.84 -5.05,0 -9.2,4.14 -9.2,9.21l0 0c0,5.06 4.14,9.2 9.2,9.2 24.04,0 45.37,4.35 64.8,21.39 28.42,24.94 31.71,93.26 31.71,130.16 0,5.07 4.13,9.2 9.19,9.2z"/>
   <path class="fil0" d="M2437.62 2081.95l0.01 0c5.06,0 9.2,-4.14 9.2,-9.2 0,-36.98 3.81,-105.55 31.8,-130.69 18.72,-16.78 41.22,-20.85 64.71,-20.85 5.06,0 9.19,-4.15 9.19,-9.2l0 0c0,-5.07 -4.14,-9.21 -9.19,-9.21 -24.06,0 -45.36,-4.33 -64.82,-21.39 -28.42,-24.94 -31.69,-93.26 -31.69,-130.15 0,-5.05 -4.14,-9.2 -9.2,-9.2l-0.01 0c-5.05,0 -9.2,4.13 -9.2,9.2 0,36.97 -3.82,105.56 -31.82,130.69 -18.73,16.79 -41.18,20.84 -64.68,20.84 -5.05,0 -9.2,4.14 -9.2,9.21l0 0c0,5.06 4.14,9.2 9.2,9.2 24.03,0 45.36,4.35 64.79,21.39 28.43,24.94 31.71,93.26 31.71,130.16 0,5.07 4.14,9.2 9.2,9.2z"/>
   <path class="fil0" d="M1856.95 2049.23l0.01 0c4.09,0 7.43,-3.35 7.43,-7.43 0,-29.87 3.08,-85.24 25.69,-105.55 15.12,-13.54 33.28,-16.83 52.25,-16.83 4.07,0 7.42,-3.35 7.42,-7.43l0 0c0,-4.09 -3.35,-7.44 -7.42,-7.44 -19.43,0 -36.63,-3.5 -52.33,-17.28 -22.97,-20.14 -25.6,-75.31 -25.6,-105.09 0,-4.09 -3.35,-7.44 -7.43,-7.44l-0.01 0c-4.09,0 -7.43,3.35 -7.43,7.44 0,29.85 -3.08,85.24 -25.69,105.53 -15.15,13.56 -33.27,16.85 -52.24,16.85 -4.07,0 -7.44,3.35 -7.44,7.44l0 0c0,4.09 3.35,7.43 7.44,7.43 19.41,0 36.63,3.51 52.33,17.29 22.95,20.12 25.6,75.3 25.6,105.09 0,4.08 3.34,7.43 7.43,7.43z"/>
   <path class="fil0" d="M3018.31 2049.23l0.02 0c4.09,0 7.42,-3.35 7.42,-7.43 0,-29.87 3.08,-85.24 25.69,-105.55 15.12,-13.54 33.28,-16.83 52.25,-16.83 4.08,0 7.43,-3.35 7.43,-7.43l0 0c0,-4.09 -3.35,-7.44 -7.43,-7.44 -19.43,0 -36.63,-3.5 -52.33,-17.28 -22.96,-20.14 -25.6,-75.31 -25.6,-105.09 0,-4.09 -3.35,-7.44 -7.42,-7.44l-0.02 0c-4.09,0 -7.42,3.35 -7.42,7.44 0,29.85 -3.09,85.24 -25.69,105.53 -15.15,13.56 -33.27,16.85 -52.24,16.85 -4.07,0 -7.43,3.35 -7.43,7.44l0 0c0,4.09 3.34,7.43 7.43,7.43 19.41,0 36.64,3.51 52.33,17.29 22.95,20.12 25.61,75.3 25.61,105.09 0,4.08 3.33,7.43 7.42,7.43z"/>
   <path class="fil0" d="M114.9 3243.31l0.01 0c5.06,0 9.21,-4.14 9.21,-9.2 0,-36.98 3.8,-105.55 31.8,-130.69 18.71,-16.78 41.22,-20.85 64.7,-20.85 5.06,0 9.2,-4.15 9.2,-9.2l0 0c0,-5.06 -4.15,-9.21 -9.2,-9.21 -24.06,0 -45.36,-4.33 -64.82,-21.39 -28.42,-24.94 -31.69,-93.26 -31.69,-130.15 0,-5.05 -4.15,-9.2 -9.21,-9.2l-0.01 0c-5.05,0 -9.2,4.14 -9.2,9.2 0,36.98 -3.82,105.57 -31.82,130.69 -18.73,16.79 -41.18,20.84 -64.68,20.84 -5.05,0 -9.2,4.15 -9.2,9.21l0 0c0,5.06 4.14,9.2 9.2,9.2 24.04,0 45.36,4.35 64.79,21.4 28.43,24.93 31.71,93.26 31.71,130.15 0,5.07 4.14,9.2 9.2,9.2z"/>
   <path class="fil0" d="M1276.26 3243.31l0.02 0c5.06,0 9.2,-4.14 9.2,-9.2 0,-36.98 3.81,-105.55 31.8,-130.69 18.71,-16.78 41.22,-20.85 64.7,-20.85 5.06,0 9.2,-4.15 9.2,-9.2l0 0c0,-5.06 -4.14,-9.21 -9.2,-9.21 -24.06,0 -45.36,-4.33 -64.81,-21.39 -28.43,-24.94 -31.69,-93.26 -31.69,-130.15 0,-5.05 -4.14,-9.2 -9.2,-9.2l-0.02 0c-5.05,0 -9.19,4.14 -9.19,9.2 0,36.98 -3.82,105.57 -31.82,130.69 -18.74,16.79 -41.18,20.84 -64.69,20.84 -5.05,0 -9.2,4.15 -9.2,9.21l0 0c0,5.06 4.14,9.2 9.2,9.2 24.04,0 45.37,4.35 64.8,21.4 28.42,24.93 31.71,93.26 31.71,130.15 0,5.07 4.13,9.2 9.19,9.2z"/>
   <path class="fil0" d="M2437.62 3243.31l0.01 0c5.06,0 9.2,-4.14 9.2,-9.2 0,-36.98 3.81,-105.55 31.8,-130.69 18.72,-16.78 41.22,-20.85 64.71,-20.85 5.06,0 9.19,-4.15 9.19,-9.2l0 0c0,-5.06 -4.14,-9.21 -9.19,-9.21 -24.06,0 -45.36,-4.33 -64.82,-21.39 -28.42,-24.94 -31.69,-93.26 -31.69,-130.15 0,-5.05 -4.14,-9.2 -9.2,-9.2l-0.01 0c-5.05,0 -9.2,4.14 -9.2,9.2 0,36.98 -3.82,105.57 -31.82,130.69 -18.73,16.79 -41.18,20.84 -64.68,20.84 -5.05,0 -9.2,4.15 -9.2,9.21l0 0c0,5.06 4.14,9.2 9.2,9.2 24.03,0 45.36,4.35 64.79,21.4 28.43,24.93 31.71,93.26 31.71,130.15 0,5.07 4.14,9.2 9.2,9.2z"/>
   <path class="fil0" d="M695.59 3210.59l0.02 0c4.09,0 7.42,-3.35 7.42,-7.43 0,-29.86 3.08,-85.24 25.69,-105.55 15.12,-13.54 33.28,-16.83 52.25,-16.83 4.08,0 7.43,-3.35 7.43,-7.43l0 0c0,-4.09 -3.35,-7.44 -7.43,-7.44 -19.43,0 -36.63,-3.5 -52.33,-17.28 -22.96,-20.14 -25.6,-75.31 -25.6,-105.09 0,-4.09 -3.35,-7.44 -7.42,-7.44l-0.02 0c-4.09,0 -7.42,3.35 -7.42,7.44 0,29.85 -3.09,85.24 -25.69,105.53 -15.14,13.56 -33.27,16.85 -52.24,16.85 -4.07,0 -7.43,3.35 -7.43,7.44l0 0c0,4.09 3.34,7.43 7.43,7.43 19.41,0 36.64,3.51 52.33,17.29 22.95,20.13 25.61,75.3 25.61,105.09 0,4.08 3.33,7.43 7.42,7.43z"/>
   <path class="fil0" d="M1856.95 3210.59l0.01 0c4.09,0 7.43,-3.35 7.43,-7.43 0,-29.86 3.08,-85.24 25.69,-105.55 15.12,-13.54 33.28,-16.83 52.25,-16.83 4.07,0 7.42,-3.35 7.42,-7.43l0 0c0,-4.09 -3.35,-7.44 -7.42,-7.44 -19.43,0 -36.63,-3.5 -52.33,-17.28 -22.97,-20.14 -25.6,-75.31 -25.6,-105.09 0,-4.09 -3.35,-7.44 -7.43,-7.44l-0.01 0c-4.09,0 -7.43,3.35 -7.43,7.44 0,29.85 -3.08,85.24 -25.69,105.53 -15.15,13.56 -33.27,16.85 -52.24,16.85 -4.07,0 -7.44,3.35 -7.44,7.44l0 0c0,4.09 3.35,7.43 7.44,7.43 19.41,0 36.63,3.51 52.33,17.29 22.95,20.13 25.6,75.3 25.6,105.09 0,4.08 3.34,7.43 7.43,7.43z"/>
   <path class="fil0" d="M3018.31 3210.59l0.02 0c4.09,0 7.42,-3.35 7.42,-7.43 0,-29.86 3.08,-85.24 25.69,-105.55 15.12,-13.54 33.28,-16.83 52.25,-16.83 4.08,0 7.43,-3.35 7.43,-7.43l0 0c0,-4.09 -3.35,-7.44 -7.43,-7.44 -19.43,0 -36.63,-3.5 -52.33,-17.28 -22.96,-20.14 -25.6,-75.31 -25.6,-105.09 0,-4.09 -3.35,-7.44 -7.42,-7.44l-0.02 0c-4.09,0 -7.42,3.35 -7.42,7.44 0,29.85 -3.09,85.24 -25.69,105.53 -15.15,13.56 -33.27,16.85 -52.24,16.85 -4.07,0 -7.43,3.35 -7.43,7.44l0 0c0,4.09 3.34,7.43 7.43,7.43 19.41,0 36.64,3.51 52.33,17.29 22.95,20.13 25.61,75.3 25.61,105.09 0,4.08 3.33,7.43 7.42,7.43z"/>
   <path class="fil0" d="M695.59 3486.48l0.01 0c5.06,0 9.2,4.15 9.2,9.2 0,36.98 3.81,105.55 31.8,130.69 18.71,16.78 41.22,20.85 64.71,20.85 5.05,0 9.19,4.16 9.19,9.2l0 0c0,5.07 -4.14,9.21 -9.19,9.21 -24.06,0 -45.37,4.33 -64.82,21.39 -28.42,24.94 -31.69,93.26 -31.69,130.15 0,5.05 -4.14,9.2 -9.2,9.2l-0.01 0c-5.05,0 -9.2,-4.13 -9.2,-9.2 0,-36.97 -3.82,-105.56 -31.82,-130.69 -18.74,-16.79 -41.18,-20.84 -64.68,-20.84 -5.05,0 -9.2,-4.14 -9.2,-9.21l0 0c0,-5.06 4.13,-9.2 9.2,-9.2 24.03,0 45.36,-4.34 64.79,-21.39 28.43,-24.94 31.71,-93.26 31.71,-130.16 0,-5.07 4.14,-9.2 9.2,-9.2z"/>
   <path class="fil0" d="M1856.95 3486.48l0.01 0c5.06,0 9.2,4.15 9.2,9.2 0,36.98 3.81,105.55 31.81,130.69 18.71,16.78 41.22,20.85 64.7,20.85 5.06,0 9.19,4.16 9.19,9.2l0 0c0,5.07 -4.14,9.21 -9.19,9.21 -24.06,0 -45.36,4.33 -64.82,21.39 -28.42,24.94 -31.69,93.26 -31.69,130.15 0,5.05 -4.14,9.2 -9.2,9.2l-0.01 0c-5.05,0 -9.2,-4.13 -9.2,-9.2 0,-36.97 -3.82,-105.56 -31.82,-130.69 -18.73,-16.79 -41.18,-20.84 -64.68,-20.84 -5.05,0 -9.2,-4.14 -9.2,-9.21l0 0c0,-5.06 4.14,-9.2 9.2,-9.2 24.03,0 45.36,-4.34 64.79,-21.39 28.43,-24.94 31.71,-93.26 31.71,-130.16 0,-5.07 4.14,-9.2 9.2,-9.2z"/>
   <path class="fil0" d="M3018.31 3486.48l0.01 0c5.06,0 9.2,4.15 9.2,9.2 0,36.98 3.81,105.55 31.8,130.69 18.71,16.78 41.22,20.85 64.7,20.85 5.06,0 9.2,4.16 9.2,9.2l0 0c0,5.07 -4.14,9.21 -9.2,9.21 -24.06,0 -45.36,4.33 -64.81,21.39 -28.43,24.94 -31.69,93.26 -31.69,130.15 0,5.05 -4.14,9.2 -9.2,9.2l-0.01 0c-5.05,0 -9.2,-4.13 -9.2,-9.2 0,-36.97 -3.82,-105.56 -31.82,-130.69 -18.74,-16.79 -41.18,-20.84 -64.68,-20.84 -5.05,0 -9.21,-4.14 -9.21,-9.21l0 0c0,-5.06 4.14,-9.2 9.21,-9.2 24.03,0 45.36,-4.34 64.79,-21.39 28.42,-24.94 31.71,-93.26 31.71,-130.16 0,-5.07 4.14,-9.2 9.2,-9.2z"/>
   <path class="fil0" d="M1276.27 3519.2l0.01 0c4.09,0 7.43,3.35 7.43,7.42 0,29.87 3.08,85.24 25.69,105.55 15.12,13.54 33.28,16.83 52.25,16.83 4.07,0 7.42,3.35 7.42,7.44l0 0c0,4.09 -3.35,7.44 -7.42,7.44 -19.43,0 -36.63,3.5 -52.33,17.27 -22.97,20.15 -25.6,75.31 -25.6,105.09 0,4.09 -3.35,7.44 -7.43,7.44l-0.01 0c-4.09,0 -7.43,-3.35 -7.43,-7.44 0,-29.84 -3.08,-85.24 -25.69,-105.53 -15.15,-13.56 -33.27,-16.84 -52.24,-16.84 -4.07,0 -7.44,-3.35 -7.44,-7.44l0 0c0,-4.09 3.35,-7.44 7.44,-7.44 19.41,0 36.63,-3.51 52.33,-17.28 22.95,-20.13 25.6,-75.3 25.6,-105.1 0,-4.07 3.34,-7.42 7.43,-7.42z"/>
   <path class="fil0" d="M2437.63 3519.2l0.01 0c4.09,0 7.43,3.35 7.43,7.42 0,29.87 3.08,85.24 25.68,105.55 15.12,13.54 33.29,16.83 52.25,16.83 4.08,0 7.43,3.35 7.43,7.44l0 0c0,4.09 -3.35,7.44 -7.43,7.44 -19.42,0 -36.63,3.5 -52.33,17.27 -22.97,20.15 -25.6,75.31 -25.6,105.09 0,4.09 -3.35,7.44 -7.43,7.44l-0.01 0c-4.09,0 -7.43,-3.35 -7.43,-7.44 0,-29.84 -3.09,-85.24 -25.69,-105.53 -15.15,-13.56 -33.27,-16.84 -52.25,-16.84 -4.07,0 -7.43,-3.35 -7.43,-7.44l0 0c0,-4.09 3.34,-7.44 7.43,-7.44 19.42,0 36.64,-3.51 52.33,-17.28 22.95,-20.13 25.61,-75.3 25.61,-105.1 0,-4.07 3.34,-7.42 7.43,-7.42z"/>
   <path class="fil0" d="M1856.95 4647.85l0.01 0c5.06,0 9.2,4.14 9.2,9.2 0,36.98 3.81,105.55 31.81,130.69 18.71,16.78 41.22,20.84 64.7,20.84 5.06,0 9.19,4.16 9.19,9.21l0 0c0,5.06 -4.14,9.2 -9.19,9.2 -24.06,0 -45.36,4.33 -64.82,21.4 -28.42,24.93 -31.69,93.26 -31.69,130.14 0,5.06 -4.14,9.2 -9.2,9.2l-0.01 0c-5.05,0 -9.2,-4.14 -9.2,-9.2 0,-36.97 -3.82,-105.56 -31.82,-130.69 -18.73,-16.79 -41.18,-20.84 -64.68,-20.84 -5.05,0 -9.2,-4.14 -9.2,-9.2l0 0c0,-5.06 4.14,-9.21 9.2,-9.21 24.03,0 45.36,-4.34 64.79,-21.39 28.43,-24.94 31.71,-93.26 31.71,-130.15 0,-5.08 4.14,-9.2 9.2,-9.2z"/>
   <path class="fil0" d="M3018.31 4647.85l0.01 0c5.06,0 9.2,4.14 9.2,9.2 0,36.98 3.81,105.55 31.8,130.69 18.71,16.78 41.22,20.84 64.7,20.84 5.06,0 9.2,4.16 9.2,9.21l0 0c0,5.06 -4.14,9.2 -9.2,9.2 -24.06,0 -45.36,4.33 -64.81,21.4 -28.43,24.93 -31.69,93.26 -31.69,130.14 0,5.06 -4.14,9.2 -9.2,9.2l-0.01 0c-5.05,0 -9.2,-4.14 -9.2,-9.2 0,-36.97 -3.82,-105.56 -31.82,-130.69 -18.74,-16.79 -41.18,-20.84 -64.68,-20.84 -5.05,0 -9.21,-4.14 -9.21,-9.2l0 0c0,-5.06 4.14,-9.21 9.21,-9.21 24.03,0 45.36,-4.34 64.79,-21.39 28.42,-24.94 31.71,-93.26 31.71,-130.15 0,-5.08 4.14,-9.2 9.2,-9.2z"/>
   <path class="fil0" d="M2437.63 4680.56l0.01 0c4.09,0 7.43,3.35 7.43,7.42 0,29.87 3.08,85.24 25.68,105.55 15.12,13.54 33.29,16.84 52.25,16.84 4.08,0 7.43,3.35 7.43,7.43l0 0c0,4.09 -3.35,7.44 -7.43,7.44 -19.42,0 -36.63,3.5 -52.33,17.28 -22.97,20.14 -25.6,75.3 -25.6,105.09 0,4.09 -3.35,7.44 -7.43,7.44l-0.01 0c-4.09,0 -7.43,-3.35 -7.43,-7.44 0,-29.85 -3.09,-85.24 -25.69,-105.53 -15.15,-13.56 -33.27,-16.84 -52.25,-16.84 -4.07,0 -7.43,-3.35 -7.43,-7.44l0 0c0,-4.09 3.34,-7.43 7.43,-7.43 19.42,0 36.64,-3.51 52.33,-17.29 22.95,-20.13 25.61,-75.3 25.61,-105.1 0,-4.07 3.34,-7.42 7.43,-7.42z"/>
   <path class="fil0" d="M1276.26 4407.07l0.02 0c5.06,0 9.2,-4.14 9.2,-9.2 0,-36.98 3.81,-105.55 31.8,-130.69 18.71,-16.78 41.22,-20.85 64.7,-20.85 5.06,0 9.2,-4.15 9.2,-9.2l0 0c0,-5.06 -4.14,-9.21 -9.2,-9.21 -24.06,0 -45.36,-4.33 -64.81,-21.39 -28.43,-24.94 -31.69,-93.26 -31.69,-130.15 0,-5.05 -4.14,-9.2 -9.2,-9.2l-0.02 0c-5.05,0 -9.19,4.14 -9.19,9.2 0,36.98 -3.82,105.56 -31.82,130.69 -18.74,16.79 -41.18,20.84 -64.69,20.84 -5.05,0 -9.2,4.15 -9.2,9.21l0 0c0,5.06 4.14,9.2 9.2,9.2 24.04,0 45.37,4.35 64.8,21.4 28.42,24.93 31.71,93.26 31.71,130.15 0,5.07 4.13,9.2 9.19,9.2z"/>
   <path class="fil0" d="M2437.62 4407.07l0.01 0c5.06,0 9.2,-4.14 9.2,-9.2 0,-36.98 3.81,-105.55 31.8,-130.69 18.72,-16.78 41.22,-20.85 64.71,-20.85 5.06,0 9.19,-4.15 9.19,-9.2l0 0c0,-5.06 -4.14,-9.21 -9.19,-9.21 -24.06,0 -45.36,-4.33 -64.82,-21.39 -28.42,-24.94 -31.69,-93.26 -31.69,-130.15 0,-5.05 -4.14,-9.2 -9.2,-9.2l-0.01 0c-5.05,0 -9.2,4.14 -9.2,9.2 0,36.98 -3.82,105.56 -31.82,130.69 -18.73,16.79 -41.18,20.84 -64.68,20.84 -5.05,0 -9.2,4.15 -9.2,9.21l0 0c0,5.06 4.14,9.2 9.2,9.2 24.03,0 45.36,4.35 64.79,21.4 28.43,24.93 31.71,93.26 31.71,130.15 0,5.07 4.14,9.2 9.2,9.2z"/>
   <path class="fil0" d="M1856.95 4374.36l0.01 0c4.09,0 7.43,-3.35 7.43,-7.43 0,-29.87 3.08,-85.24 25.69,-105.55 15.12,-13.54 33.28,-16.83 52.25,-16.83 4.07,0 7.42,-3.35 7.42,-7.43l0 0c0,-4.09 -3.35,-7.44 -7.42,-7.44 -19.43,0 -36.63,-3.5 -52.33,-17.28 -22.97,-20.14 -25.6,-75.31 -25.6,-105.09 0,-4.09 -3.35,-7.44 -7.43,-7.44l-0.01 0c-4.09,0 -7.43,3.35 -7.43,7.44 0,29.85 -3.08,85.24 -25.69,105.53 -15.15,13.56 -33.27,16.85 -52.24,16.85 -4.07,0 -7.44,3.35 -7.44,7.44l0 0c0,4.09 3.35,7.43 7.44,7.43 19.41,0 36.63,3.51 52.33,17.29 22.95,20.12 25.6,75.3 25.6,105.09 0,4.08 3.34,7.43 7.43,7.43z"/>
   <path class="fil0" d="M3018.31 4374.36l0.02 0c4.09,0 7.42,-3.35 7.42,-7.43 0,-29.87 3.08,-85.24 25.69,-105.55 15.12,-13.54 33.28,-16.83 52.25,-16.83 4.08,0 7.43,-3.35 7.43,-7.43l0 0c0,-4.09 -3.35,-7.44 -7.43,-7.44 -19.43,0 -36.63,-3.5 -52.33,-17.28 -22.96,-20.14 -25.6,-75.31 -25.6,-105.09 0,-4.09 -3.35,-7.44 -7.42,-7.44l-0.02 0c-4.09,0 -7.42,3.35 -7.42,7.44 0,29.85 -3.09,85.24 -25.69,105.53 -15.15,13.56 -33.27,16.85 -52.24,16.85 -4.07,0 -7.43,3.35 -7.43,7.44l0 0c0,4.09 3.34,7.43 7.43,7.43 19.41,0 36.64,3.51 52.33,17.29 22.95,20.12 25.61,75.3 25.61,105.09 0,4.08 3.33,7.43 7.42,7.43z"/>
   <path class="fil0" d="M2437.62 5568.43l0.01 0c5.06,0 9.2,-4.14 9.2,-9.2 0,-36.98 3.81,-105.55 31.8,-130.69 18.72,-16.78 41.22,-20.84 64.71,-20.84 5.06,0 9.19,-4.16 9.19,-9.21l0 0c0,-5.06 -4.14,-9.2 -9.19,-9.2 -24.06,0 -45.36,-4.33 -64.82,-21.4 -28.42,-24.93 -31.69,-93.26 -31.69,-130.14 0,-5.06 -4.14,-9.2 -9.2,-9.2l-0.01 0c-5.05,0 -9.2,4.14 -9.2,9.2 0,36.97 -3.82,105.56 -31.82,130.69 -18.73,16.79 -41.18,20.84 -64.68,20.84 -5.05,0 -9.2,4.14 -9.2,9.2l0 0c0,5.06 4.14,9.21 9.2,9.21 24.03,0 45.36,4.34 64.79,21.39 28.43,24.94 31.71,93.26 31.71,130.15 0,5.08 4.14,9.2 9.2,9.2z"/>
   <path class="fil0" d="M3018.31 5535.72l0.02 0c4.09,0 7.42,-3.35 7.42,-7.42 0,-29.87 3.08,-85.24 25.69,-105.55 15.12,-13.54 33.28,-16.83 52.25,-16.83 4.08,0 7.43,-3.35 7.43,-7.44l0 0c0,-4.09 -3.35,-7.44 -7.43,-7.44 -19.43,0 -36.63,-3.5 -52.33,-17.28 -22.96,-20.14 -25.6,-75.3 -25.6,-105.09 0,-4.09 -3.35,-7.44 -7.42,-7.44l-0.02 0c-4.09,0 -7.42,3.35 -7.42,7.44 0,29.85 -3.09,85.24 -25.69,105.53 -15.15,13.56 -33.27,16.84 -52.24,16.84 -4.07,0 -7.43,3.35 -7.43,7.44l0 0c0,4.09 3.34,7.44 7.43,7.44 19.41,0 36.64,3.51 52.33,17.28 22.95,20.13 25.61,75.3 25.61,105.1 0,4.07 3.33,7.42 7.42,7.42z"/>
  </g>
 </g>
</svg>
