<?xml version="1.0" encoding="UTF-8"?>
<!DOCTYPE svg PUBLIC "-//W3C//DTD SVG 1.1//EN" "http://www.w3.org/Graphics/SVG/1.1/DTD/svg11.dtd">
<!-- Creator: CorelDRAW 2018 (64-Bit) -->
<svg xmlns="http://www.w3.org/2000/svg" xml:space="preserve" width="18.1577mm" height="26.8545mm" version="1.1" style="shape-rendering:geometricPrecision; text-rendering:geometricPrecision; image-rendering:optimizeQuality; fill-rule:evenodd; clip-rule:evenodd"
viewBox="0 0 207.01 306.16"
 xmlns:xlink="http://www.w3.org/1999/xlink">
 <defs>
  <style type="text/css">
   <![CDATA[
    .fil0 {fill:url(#id0)}
   ]]>
  </style>
  <radialGradient id="id0" gradientUnits="userSpaceOnUse" gradientTransform="matrix(1.12693 -0 -0 1.66667 -22 -45)" cx="169.74" cy="67.35" r="10.33" fx="169.74" fy="67.35">
   <stop offset="0" style="stop-opacity:1; stop-color:#E73E3A"/>
   <stop offset="1" style="stop-opacity:1; stop-color:#E42424"/>
  </radialGradient>
 </defs>
 <g id="Слой_x0020_1">
  <metadata id="CorelCorpID_0Corel-Layer"/>
  <path class="fil0" d="M103.5 0l0.01 0c4.56,0 8.28,3.73 8.28,8.28 0,33.31 3.44,95.07 28.65,117.72 16.86,15.12 37.13,18.78 58.28,18.78 4.56,0 8.28,3.75 8.28,8.3l0 0c0,4.56 -3.73,8.28 -8.28,8.28 -21.67,0 -40.86,3.91 -58.37,19.27 -25.61,22.47 -28.56,84.01 -28.56,117.24 0,4.55 -3.72,8.28 -8.28,8.28l-0.01 0c-4.55,0 -8.28,-3.72 -8.28,-8.28 0,-33.3 -3.44,-95.08 -28.66,-117.72 -16.88,-15.13 -37.1,-18.79 -58.27,-18.79 -4.54,0 -8.28,-3.72 -8.28,-8.28l0 0c0,-4.56 3.73,-8.3 8.28,-8.3 21.65,0 40.88,-3.9 58.36,-19.26 25.61,-22.46 28.57,-84 28.57,-117.24 0,-4.56 3.72,-8.28 8.28,-8.28z"/>
 </g>
</svg>
