<?xml version="1.0" encoding="UTF-8"?>
<!DOCTYPE svg PUBLIC "-//W3C//DTD SVG 1.1//EN" "http://www.w3.org/Graphics/SVG/1.1/DTD/svg11.dtd">
<!-- Creator: CorelDRAW 2018 (64-Bit) -->
<svg xmlns="http://www.w3.org/2000/svg" xml:space="preserve" width="70.5338mm" height="45.7394mm" version="1.1" style="shape-rendering:geometricPrecision; text-rendering:geometricPrecision; image-rendering:optimizeQuality; fill-rule:evenodd; clip-rule:evenodd"
viewBox="0 0 1756.69 1139.17"
 xmlns:xlink="http://www.w3.org/1999/xlink">
 <defs>
  <style type="text/css">
   <![CDATA[
    .fil0 {fill:#D72120}
   ]]>
  </style>
 </defs>
 <g id="Слой_x0020_1">
  <metadata id="CorelCorpID_0Corel-Layer"/>
  <path class="fil0" d="M56.34 47.57l1120.81 0.98c3.64,0.01 6.62,3.04 6.6,6.65l-0.36 132.96 -85.22 0c-28.7,0 -52.18,23.48 -52.18,52.18l0 560.11 -991.71 -0.86c-3.61,-0.02 -6.61,-2.99 -6.61,-6.63l2 -738.78c0.01,-3.64 2.99,-6.61 6.65,-6.6l0.01 -0.01zm279.68 168.17l0 0c1.78,0 3.23,1.45 3.23,3.23 0,12.99 1.34,37.06 11.17,45.89 6.57,5.89 14.47,7.32 22.71,7.32 1.78,0 3.23,1.46 3.23,3.24l0 0c0,1.78 -1.45,3.23 -3.23,3.23 -8.45,0 -15.92,1.52 -22.75,7.51 -9.98,8.76 -11.13,32.74 -11.13,45.69 0,1.77 -1.45,3.23 -3.23,3.23l0 0c-1.78,0 -3.23,-1.45 -3.23,-3.23 0,-12.98 -1.34,-37.06 -11.17,-45.88 -6.58,-5.9 -14.46,-7.32 -22.71,-7.32 -1.77,0 -3.23,-1.46 -3.23,-3.23l0 0c0,-1.78 1.45,-3.24 3.23,-3.24 8.44,0 15.93,-1.52 22.75,-7.51 9.98,-8.75 11.14,-32.74 11.14,-45.69 0,-1.78 1.45,-3.23 3.23,-3.23zm567.05 146.38l0 0c1.43,0 2.61,1.17 2.61,2.61 0,10.49 1.08,29.92 9.02,37.06 5.31,4.75 11.69,5.91 18.35,5.91 1.43,0 2.61,1.18 2.61,2.62l0 0c0,1.43 -1.18,2.61 -2.61,2.61 -6.82,0 -12.86,1.23 -18.37,6.06 -8.06,7.07 -8.99,26.44 -8.99,36.9 0,1.44 -1.17,2.61 -2.61,2.61l-0 0c-1.43,0 -2.61,-1.17 -2.61,-2.61 0,-10.48 -1.08,-29.93 -9.02,-37.05 -5.31,-4.76 -11.68,-5.91 -18.34,-5.91 -1.43,0 -2.61,-1.18 -2.61,-2.61l0 0c0,-1.44 1.18,-2.62 2.61,-2.62 6.82,0 12.87,-1.23 18.37,-6.06 8.06,-7.07 8.99,-26.44 8.99,-36.9 0,-1.43 1.17,-2.61 2.61,-2.61zm-186.81 315.15l0 0c1.44,0 2.61,1.17 2.61,2.61 0,10.49 1.08,29.92 9.02,37.05 5.31,4.76 11.69,5.91 18.35,5.91 1.44,0 2.61,1.18 2.61,2.61l0 0c0,1.43 -1.18,2.61 -2.61,2.61 -6.82,0 -12.86,1.23 -18.37,6.07 -8.06,7.07 -8.99,26.44 -8.99,36.9 0,1.43 -1.17,2.61 -2.61,2.61l-0 0c-1.43,0 -2.61,-1.17 -2.61,-2.61 0,-10.48 -1.08,-29.93 -9.02,-37.05 -5.31,-4.76 -11.68,-5.91 -18.34,-5.91 -1.43,0 -2.61,-1.17 -2.61,-2.61l0 0c0,-1.44 1.18,-2.61 2.61,-2.61 6.81,0 12.86,-1.23 18.37,-6.06 8.06,-7.07 8.99,-26.44 8.99,-36.9 0,-1.43 1.17,-2.61 2.61,-2.61zm-114.97 -529.48c2.42,-0.51 4.94,0.46 6.39,2.51 1.98,2.8 1.31,6.71 -1.49,8.7 -0.42,0.3 -0.88,0.55 -1.46,0.77l-0.3 0.11 -0.14 0.03c-0.21,0.06 -0.42,0.11 -0.63,0.15l-0.64 0.13c-40.13,9.88 -79.42,25.81 -112.59,50.83 -50.37,38 -86.19,93.64 -79.37,158.68 2.06,19.68 8.49,40.92 20.06,57.18 8.06,11.32 25.16,27.5 37.9,13.13 15.68,-17.66 13.52,-36.02 10.99,-57.74 -3.58,-30.68 2.39,-67.09 18.97,-93.4 18.98,-30.1 45.59,-52.94 78.64,-66.29 54.94,-22.2 118.03,-14.53 170.74,10.18 59.88,28.08 107.59,77.75 133.38,138.64 1.23,2.14 1.08,4.84 -0.41,6.84 -2.06,2.75 -5.98,3.32 -8.74,1.27 -0.4,-0.3 -0.76,-0.65 -1.17,-1.13l-0.25 -0.31 -0.07 -0.13c-0.11,-0.17 -0.22,-0.35 -0.31,-0.53l-0.31 -0.55c-21.79,-35.11 -49.08,-67.55 -83.13,-91.37 -53.51,-37.43 -120.14,-54.06 -180.97,-23.85 -16.55,8.22 -33.21,20.62 -43.9,35.89 -5.56,7.94 -12.58,21.73 -7.47,31.42 8.1,15.4 47.07,7.79 59.33,1.5 29.57,-16 70.13,-23.34 103.05,-14.99 34.49,8.75 64.44,27.01 87.35,54.31 38.09,45.4 50.29,107.76 43.07,165.53 -8.2,65.63 -40.69,126.35 -90.64,169.69 -1.66,1.84 -4.27,2.53 -6.64,1.72 -3.25,-1.1 -5.01,-4.67 -3.9,-7.93 0.16,-0.48 0.39,-0.94 0.74,-1.49l0.21 -0.3 0.09 -0.1c0.13,-0.16 0.26,-0.31 0.41,-0.46l0.42 -0.46c26.65,-31.57 49.12,-67.56 61.21,-107.3 12.17,-40.01 14.54,-82.81 -0.2,-122.47 -10.63,-28.64 -29.78,-54.22 -54.75,-71.91 -41.34,-29.3 -86,-29.23 -122.61,7.44 -12.92,-11.42 -29.62,-17.15 -47.1,-16.29 -36.79,1.81 -65.15,33.1 -63.34,69.89 0.58,11.84 4.25,23.22 10.73,33.14 12.97,19.85 35.41,31.37 59.17,30.2 22.73,-1.12 49.22,-16.52 56.94,-38.77 -21.39,-5.15 -49.01,0.19 -65.26,5.12 0,0 5.64,-24.47 22.34,-50.56 73.03,-2.02 147.24,10.49 152.9,96.63 2.33,35.46 -5.81,69.68 -24.66,99.85 -31.43,50.3 -86.89,81.12 -144.12,92.12 -64.96,12.49 -132.74,0.34 -189.4,-33.76 -2.23,-1.01 -3.72,-3.3 -3.69,-5.78 0.04,-3.44 2.89,-6.21 6.19,-6.16 0.57,-0.01 1.13,0.06 1.74,0.22l0.25 0.07 0.12 0.04c0.25,0.09 0.5,0.19 0.74,0.31l0.54 0.24c38.28,15.6 79.42,25.8 120.96,25.06 65.05,-1.17 128.47,-26.66 160.09,-86.44 8.71,-16.48 15.03,-36.44 14.77,-55.23 -0.13,-9.75 -2.53,-25.19 -12.42,-30.07 -19.58,-9.6 -45.04,21.51 -52.8,36.44 -14.91,28.7 -42.3,56.53 -72.51,68.59 -33.02,13.18 -68.04,16.02 -102.59,7.4 -57.55,-14.35 -104,-57.57 -132.15,-108.6 -31.89,-57.82 -41.31,-126.25 -26.41,-190.56 0.27,-2.46 1.96,-4.56 4.35,-5.3 3.28,-1.01 6.8,0.84 7.82,4.11 0.15,0.5 0.24,1 0.28,1.62l0.01 0.32 -0.01 0.05c-0,0.22 -0.02,0.44 -0.05,0.65l-0 0.2 -0.04 0.15 -0.04 0.36c-3.01,41.23 0,83.54 13.55,122.82 20.6,59.73 62.33,110.88 126.38,124.52 19.36,4.12 41.54,4.58 60.58,-1.4 11.08,-3.48 30,-12.78 26.22,-27.24 -5.12,-19.65 -33.79,-28.79 -51.39,-31.89 -31.45,-5.53 -65.79,-22.84 -86.34,-47.54 -22.76,-27.36 -36.26,-59.72 -38.75,-95.27 -4.13,-59.12 22.65,-116.74 62.45,-159.24 45.21,-48.28 107.18,-78.3 173.07,-84.01zm629.67 40.36l0.36 -132.84c0.08,-29.81 -24.23,-54.26 -54.05,-54.34l-1120.81 -0.98c-29.81,-0.08 -54.27,24.24 -54.34,54.04l-2.11 776.84c-0.08,29.81 24.23,54.26 54.05,54.34l991.94 0.87 0 200.89c0,28.7 23.48,52.18 52.18,52.18l606.34 0c28.7,0 52.18,-23.48 52.18,-52.18l0 -846.65c0,-28.7 -23.48,-52.18 -52.18,-52.18l-473.57 0zm286.28 124.47l5.67 -21.14c79,21.17 125.88,102.37 104.71,181.37l-21.14 -5.66c18.04,-67.32 -21.92,-136.53 -89.24,-154.57zm147.53 393.96l-168.25 -291.41c-10.81,-18.73 -34.98,-25.2 -53.7,-14.39l-124.64 71.96 137.82 238.71 1.11 0.64c11.34,6.93 18.09,21.91 22.31,39.92l46.32 80.23 124.64 -71.96c18.73,-10.81 25.21,-34.98 14.39,-53.7zm-70.75 280.59l14.2 -125.3c5.24,-22.8 9.74,-36.35 -2.57,-50.13l-114.22 65.86c1.54,7.55 2.84,14.06 1.69,18.69 -2.3,9.24 -16.2,12.28 -20.71,-3.88 -2.27,-8.1 -1.82,-16.88 -2.51,-24.61l-8.76 -102.11c-7.58,-52.19 -34.72,-39.1 -45.67,-24.38 -25.25,33.94 4.56,77.19 -11.57,131.19 -18.87,63.18 -2.09,74.87 32.34,142.79 6.47,12.75 12.58,25.16 19.07,37.75 2.71,5.26 5.16,9.26 6.85,12.73 7.93,16.19 -9.77,27.97 -18.55,10 -15.07,-30.84 -50.28,-97.86 -56.65,-111.54 -7.84,-16.82 -8.25,-26.23 -12.68,-40.74 -26.82,-2.52 -39.96,-19.72 -38.49,-48.35 -10.84,-3.03 -20.84,0.26 -34.36,-18.93 -10.18,-14.45 -9.07,-28.47 -3.84,-39.81 -17.41,-21.57 -23.62,-27.07 -16.93,-50.9 5.4,-19.24 15.75,-25.54 32.33,-41.25l9.75 -5.63 -87.95 -152.34c-16.37,-28.35 -6.57,-64.92 21.78,-81.28l176.18 -101.72c28.35,-16.37 64.92,-6.57 81.28,21.78l168.24 291.41c16.37,28.35 6.57,64.92 -21.78,81.28l-37.78 21.81c14.43,17.83 14.38,33.52 9.58,49.86 -5.77,19.63 -11.14,79.12 -13.5,103.06 -0.92,9.34 -1.67,24.82 -3.57,37.15 -3.97,25.77 -23.11,21.14 -21.18,-2.48zm-210.28 -203.22c0.41,-16.34 2.7,-33.49 8.68,-45.27 1.57,-3.1 3.44,-6.02 5.54,-8.71l-131.32 -227.46c-18.73,10.81 -25.2,34.97 -14.39,53.7l131.49 227.74zm-31.05 9.63c12.2,17.99 22.51,30.82 15.1,37.97 -7.47,7.2 -29.81,23.24 -39.39,20.58 -13.84,-3.84 -15.16,-23.73 -11.45,-32.13 3,-6.8 26.54,-21.33 35.73,-26.43zm-46.51 0.94c-15.87,-17.39 -0.93,-40.85 18.3,-50.57 3.47,6.02 7.01,11.92 10.54,17.88 5.28,8.92 7.93,9.7 3.39,15.57 -5.57,7.21 -23.22,17.19 -32.23,17.11zm77.05 52.05c6.12,9.27 -0.9,21.12 -3.34,29.87 -2.03,7.3 -2.32,27.38 -11.21,25.26 -8.01,-1.92 -30.43,-32.03 14.55,-55.13zm96.97 -332.51l-34.68 -60.06 -60.06 34.68 34.68 60.07 60.06 -34.68zm-238.16 158.13l-5.67 21.14c-79,-21.17 -125.88,-102.37 -104.71,-181.37l21.14 5.66c-18.04,67.32 21.91,136.53 89.24,154.57zm-11.33 42.28c-90.67,-24.3 -144.49,-117.5 -120.19,-208.17l-21.14 -5.67c-27.42,102.35 33.32,207.55 135.66,234.97l5.67 -21.14zm22.66 -84.56l-5.67 21.14c-55.65,-14.91 -88.67,-72.11 -73.76,-127.76l21.14 5.66c-11.79,43.97 14.31,89.18 58.29,100.96zm275.21 -359.57c90.67,24.3 144.49,117.5 120.19,208.17l21.14 5.67c27.42,-102.35 -33.32,-207.55 -135.66,-234.97l-5.67 21.14zm-22.65 84.56l5.66 -21.14c55.65,14.91 88.67,72.11 73.76,127.76l-21.14 -5.66c11.78,-43.97 -14.31,-89.18 -58.29,-100.96zm-889.23 -287.15c8.98,0.02 16.23,7.33 16.22,16.3 -0.02,8.98 -7.32,16.23 -16.3,16.22 -8.99,-0.03 -16.23,-7.32 -16.22,-16.3 0.02,-8.98 7.32,-16.23 16.3,-16.22zm-55.09 793.24l105.85 0.29c10.04,0.03 18.24,-8.15 18.27,-18.17l0 0c0.03,-10.01 -8.15,-18.24 -18.18,-18.28l-105.85 -0.29c-10.01,-0.03 -18.24,8.15 -18.28,18.17l0 0c-0.03,10.01 8.15,18.24 18.18,18.28z"/>
 </g>
</svg>
