<?xml version="1.0" encoding="UTF-8"?>
<!DOCTYPE svg PUBLIC "-//W3C//DTD SVG 1.1//EN" "http://www.w3.org/Graphics/SVG/1.1/DTD/svg11.dtd">
<!-- Creator: CorelDRAW 2018 (64-Bit) -->
<svg xmlns="http://www.w3.org/2000/svg" xml:space="preserve" width="77.5987mm" height="45.7667mm" version="1.1" style="shape-rendering:geometricPrecision; text-rendering:geometricPrecision; image-rendering:optimizeQuality; fill-rule:evenodd; clip-rule:evenodd"
viewBox="0 0 3695.27 2179.42"
 xmlns:xlink="http://www.w3.org/1999/xlink">
 <defs>
  <style type="text/css">
   <![CDATA[
    .fil0 {fill:#D72120}
    .fil2 {fill:url(#id0)}
    .fil1 {fill:url(#id1)}
   ]]>
  </style>
  <radialGradient id="id0" gradientUnits="userSpaceOnUse" gradientTransform="matrix(1.12693 -0 -0 1.66667 -135 -936)" cx="1061.31" cy="1404.12" r="43.14" fx="1061.31" fy="1404.12">
   <stop offset="0" style="stop-opacity:1; stop-color:#E73E3A"/>
   <stop offset="1" style="stop-opacity:1; stop-color:#E42424"/>
  </radialGradient>
  <radialGradient id="id1" gradientUnits="userSpaceOnUse" gradientTransform="matrix(1.12693 -0 -0 1.66667 -454 -146)" xlink:href="#id0" cx="3574.28" cy="218.64" r="43.14" fx="3574.28" fy="218.64">
  </radialGradient>
 </defs>
 <g id="Слой_x0020_1">
  <metadata id="CorelCorpID_0Corel-Layer"/>
  <path class="fil0" d="M2050.79 91.89l603.32 0.93c1.07,0 2.1,0.14 3.1,0.4 3.3,2.28 5.46,6.08 5.47,10.37l3.83 1898.4c0,6.97 -5.74,12.64 -12.64,12.68l-603.08 0.93 -603.08 -0.93c-6.9,-0.04 -12.64,-5.71 -12.64,-12.68l3.83 -1898.4c0.01,-4.29 2.17,-8.09 5.47,-10.37 0.99,-0.26 2.03,-0.4 3.1,-0.4l603.32 -0.93zm-443.55 582.94l0 0c2.93,0 5.32,2.39 5.32,5.32 0,21.38 2.2,61.01 18.38,75.54 10.81,9.7 23.81,12.04 37.39,12.04 2.93,0 5.31,2.4 5.31,5.33l0 0c0,2.92 -2.4,5.32 -5.31,5.32 -13.91,0 -26.21,2.5 -37.46,12.36 -16.42,14.41 -18.31,53.9 -18.31,75.22 0,2.92 -2.39,5.31 -5.32,5.31l0 0c-2.92,0 -5.32,-2.39 -5.32,-5.31 0,-21.37 -2.21,-61.01 -18.39,-75.54 -10.83,-9.71 -23.81,-12.05 -37.39,-12.05 -2.92,0 -5.32,-2.4 -5.32,-5.32l0 0c0,-2.92 2.39,-5.33 5.32,-5.33 13.89,0 26.22,-2.5 37.45,-12.37 16.43,-14.41 18.33,-53.89 18.33,-75.22 0,-2.93 2.39,-5.32 5.32,-5.32zm933.47 240.97l0 0c2.36,0 4.29,1.93 4.29,4.29 0,17.27 1.78,49.26 14.84,61.01 8.73,7.82 19.23,9.72 30.2,9.72 2.36,0 4.29,1.94 4.29,4.3l0 0c0,2.36 -1.94,4.3 -4.29,4.3 -11.22,0 -21.17,2.02 -30.25,9.98 -13.28,11.64 -14.8,43.52 -14.8,60.74 0,2.37 -1.93,4.3 -4.29,4.3l-0 0c-2.36,0 -4.3,-1.93 -4.3,-4.3 0,-17.25 -1.78,-49.26 -14.85,-60.99 -8.75,-7.84 -19.22,-9.73 -30.19,-9.73 -2.35,0 -4.3,-1.93 -4.3,-4.3l0 0c0,-2.37 1.94,-4.3 4.3,-4.3 11.22,0 21.18,-2.02 30.24,-9.98 13.27,-11.64 14.8,-43.52 14.8,-60.75 0,-2.36 1.93,-4.29 4.3,-4.29zm-307.53 518.8l0 0c2.37,0 4.3,1.93 4.3,4.29 0,17.26 1.78,49.26 14.84,60.99 8.74,7.83 19.24,9.73 30.2,9.73 2.37,0 4.3,1.94 4.3,4.3l0 0c0,2.36 -1.94,4.29 -4.3,4.29 -11.23,0 -21.17,2.02 -30.24,9.99 -13.27,11.64 -14.8,43.52 -14.8,60.74 0,2.36 -1.93,4.3 -4.3,4.3l-0 0c-2.36,0 -4.29,-1.93 -4.29,-4.3 0,-17.25 -1.79,-49.26 -14.85,-61 -8.74,-7.83 -19.22,-9.73 -30.19,-9.73 -2.36,0 -4.3,-1.93 -4.3,-4.29l0 0c0,-2.37 1.93,-4.3 4.3,-4.3 11.22,0 21.18,-2.02 30.24,-9.98 13.26,-11.63 14.8,-43.52 14.8,-60.74 0,-2.36 1.93,-4.29 4.29,-4.29zm-189.27 -871.62c3.99,-0.85 8.13,0.76 10.51,4.13 3.26,4.6 2.15,11.05 -2.45,14.31 -0.7,0.5 -1.45,0.9 -2.41,1.27l-0.5 0.18 -0.23 0.05c-0.34,0.1 -0.69,0.19 -1.04,0.24l-1.05 0.21c-66.06,16.27 -130.73,42.49 -185.34,83.67 -82.92,62.55 -141.88,154.15 -130.67,261.23 3.4,32.4 13.97,67.36 33.02,94.14 13.26,18.64 41.42,45.27 62.39,21.62 25.81,-29.08 22.26,-59.3 18.1,-95.05 -5.89,-50.5 3.93,-110.45 31.23,-153.75 31.25,-49.56 75.06,-87.15 129.47,-109.13 90.45,-36.54 194.29,-23.92 281.07,16.77 98.58,46.22 177.11,127.99 219.57,228.23 2.02,3.52 1.78,7.98 -0.68,11.27 -3.39,4.53 -9.85,5.47 -14.39,2.09 -0.66,-0.49 -1.26,-1.06 -1.92,-1.87l-0.41 -0.51 -0.11 -0.21c-0.19,-0.28 -0.36,-0.58 -0.52,-0.87l-0.51 -0.91c-35.88,-57.81 -80.8,-111.2 -136.85,-150.4 -88.09,-61.62 -197.78,-88.99 -297.92,-39.27 -27.25,13.54 -54.68,33.95 -72.27,59.08 -9.16,13.07 -20.71,35.76 -12.3,51.73 13.33,25.35 77.49,12.83 97.67,2.47 48.67,-26.34 115.44,-38.42 169.64,-24.67 56.78,14.41 106.07,44.46 143.79,89.41 62.7,74.74 82.79,177.4 70.91,272.49 -13.5,108.04 -66.99,207.99 -149.2,279.35 -2.74,3.02 -7.03,4.16 -10.94,2.83 -5.36,-1.82 -8.25,-7.69 -6.43,-13.05 0.27,-0.8 0.64,-1.55 1.22,-2.46l0.34 -0.5 0.15 -0.17c0.21,-0.27 0.44,-0.51 0.68,-0.75l0.68 -0.75c43.87,-51.97 80.86,-111.22 100.76,-176.63 20.03,-65.86 23.93,-136.32 -0.33,-201.61 -17.51,-47.14 -49.02,-89.26 -90.12,-118.38 -68.06,-48.24 -141.57,-48.11 -201.84,12.25 -21.26,-18.8 -48.76,-28.23 -77.53,-26.81 -60.56,2.98 -107.25,54.49 -104.27,115.05 0.96,19.48 7,38.22 17.66,54.55 21.35,32.68 58.29,51.63 97.4,49.71 37.42,-1.84 81.03,-27.2 93.74,-63.83 -35.22,-8.47 -80.68,0.31 -107.43,8.43 0,0 9.28,-40.28 36.78,-83.23 120.21,-3.33 242.38,17.26 251.71,159.08 3.84,58.37 -9.56,114.7 -40.6,164.38 -51.74,82.8 -143.04,133.54 -237.24,151.64 -106.93,20.55 -218.52,0.56 -311.79,-55.59 -3.67,-1.65 -6.12,-5.44 -6.07,-9.51 0.07,-5.66 4.76,-10.22 10.2,-10.14 0.94,-0.02 1.86,0.1 2.87,0.37l0.41 0.12 0.2 0.08c0.41,0.15 0.82,0.31 1.22,0.51l0.89 0.4c63.01,25.67 130.73,42.47 199.11,41.25 107.09,-1.92 211.49,-43.89 263.55,-142.3 14.35,-27.12 24.75,-59.98 24.31,-90.92 -0.22,-16.05 -4.16,-41.47 -20.45,-49.5 -32.22,-15.8 -74.14,35.42 -86.92,60 -24.54,47.24 -69.64,93.05 -119.37,112.91 -54.35,21.7 -112,26.37 -168.88,12.19 -94.74,-23.62 -171.2,-94.77 -217.54,-178.77 -52.49,-95.18 -68.01,-207.83 -43.48,-313.7 0.44,-4.06 3.23,-7.5 7.17,-8.72 5.4,-1.67 11.19,1.38 12.87,6.76 0.25,0.82 0.4,1.65 0.47,2.67l0.01 0.52 -0.01 0.09c-0,0.37 -0.03,0.72 -0.08,1.07l-0 0.33 -0.06 0.25 -0.07 0.59c-4.95,67.87 0.01,137.53 22.31,202.19 33.91,98.33 102.6,182.54 208.05,204.99 31.88,6.79 68.38,7.53 99.73,-2.31 18.23,-5.73 49.38,-21.04 43.17,-44.84 -8.43,-32.35 -55.63,-47.39 -84.6,-52.5 -51.77,-9.11 -108.3,-37.6 -142.13,-78.26 -37.47,-45.03 -59.69,-98.31 -63.79,-156.84 -6.8,-97.32 37.3,-192.18 102.81,-262.14 74.42,-79.47 176.45,-128.89 284.9,-138.29zm713.74 -457.21c0.11,-42.42 -25.61,-79.15 -62.26,-95.24 -13.81,-6.78 -29.31,-10.57 -45.66,-10.53l-598.93 0.93 -598.93 -0.93c-16.35,-0.04 -31.86,3.75 -45.66,10.53 -36.66,16.09 -62.38,52.82 -62.26,95.24l-0 1968.74c-0.15,57 46.33,103.76 103.34,103.91 356.25,0.31 245.28,1.25 603.53,0.94l603.53 -0.94c57,-0.15 103.49,-46.91 103.34,-103.91l-0 -1968.74zm-708.81 23.79c-17.17,0.04 -31.04,14.01 -31.01,31.17 0.04,17.17 14,31.04 31.17,31.01 0.6,0 1.2,-0.03 1.79,-0.06 0.59,0.03 1.19,0.06 1.79,0.06 17.17,0.03 31.13,-13.84 31.17,-31.01 0.03,-17.16 -13.84,-31.13 -31.01,-31.17 -0.65,0 -1.3,0.02 -1.95,0.06 -0.64,-0.04 -1.3,-0.06 -1.95,-0.06zm105.33 2002.52l-103.38 0.29 -103.38 -0.29c-0.84,-0 -1.68,-0.04 -2.51,-0.1 -15.92,-3.17 -28,-17.26 -28.06,-34.07l0 0c-0.05,-19.15 15.58,-34.87 34.75,-34.95l99.2 -0.28 99.2 0.28c19.18,0.08 34.81,15.8 34.75,34.95l0 0c-0.06,16.81 -12.14,30.91 -28.06,34.07 -0.83,0.06 -1.67,0.1 -2.51,0.1z"/>
 </g>
 <g id="Слой_x0020_1_0">
  <metadata id="CorelCorpID_1Corel-Layer"/>
  <path class="fil1" d="M3359.23 0l0.03 0c14.81,0 26.89,12.11 26.89,26.89 0,108.16 11.16,308.66 93.02,382.19 54.73,49.07 120.53,60.95 189.21,60.95 14.81,0 26.89,12.18 26.89,26.96l0 0c0,14.81 -12.11,26.89 -26.89,26.89 -70.34,0 -132.64,12.71 -189.51,62.57 -83.14,72.94 -92.72,272.75 -92.72,380.61 0,14.78 -12.08,26.89 -26.89,26.89l-0.03 0c-14.78,0 -26.89,-12.08 -26.89,-26.89 0,-108.12 -11.16,-308.69 -93.05,-382.19 -54.8,-49.11 -120.43,-60.99 -189.19,-60.99 -14.74,0 -26.89,-12.08 -26.89,-26.89l0 0c0,-14.81 12.11,-26.96 26.89,-26.96 70.3,0 132.71,-12.67 189.48,-62.53 83.14,-72.9 92.75,-272.72 92.75,-380.61 0,-14.81 12.08,-26.89 26.89,-26.89z"/>
  <path class="fil2" d="M846.26 1185.48l0.03 0c14.81,0 26.89,12.11 26.89,26.89 0,108.16 11.16,308.66 93.02,382.19 54.73,49.07 120.53,60.95 189.21,60.95 14.81,0 26.89,12.18 26.89,26.96l0 0c0,14.81 -12.11,26.89 -26.89,26.89 -70.34,0 -132.64,12.71 -189.51,62.57 -83.14,72.94 -92.72,272.75 -92.72,380.61 0,14.78 -12.08,26.89 -26.89,26.89l-0.03 0c-14.78,0 -26.89,-12.08 -26.89,-26.89 0,-108.12 -11.16,-308.69 -93.05,-382.19 -54.8,-49.11 -120.43,-60.99 -189.19,-60.99 -14.74,0 -26.89,-12.08 -26.89,-26.89l0 0c0,-14.81 12.11,-26.96 26.89,-26.96 70.3,0 132.71,-12.67 189.48,-62.53 83.14,-72.9 92.75,-272.72 92.75,-380.61 0,-14.81 12.08,-26.89 26.89,-26.89z"/>
  <path class="fil2" d="M336.01 592.74l0.03 0c14.81,0 26.89,12.11 26.89,26.89 0,108.16 11.16,308.66 93.02,382.19 54.73,49.07 120.53,60.95 189.21,60.95 14.81,0 26.89,12.18 26.89,26.96l0 0c0,14.81 -12.11,26.89 -26.89,26.89 -70.34,0 -132.64,12.71 -189.51,62.57 -83.14,72.94 -92.72,272.75 -92.72,380.61 0,14.78 -12.08,26.89 -26.89,26.89l-0.03 0c-14.78,0 -26.89,-12.08 -26.89,-26.89 0,-108.12 -11.16,-308.69 -93.05,-382.19 -54.8,-49.11 -120.43,-60.99 -189.19,-60.99 -14.74,0 -26.89,-12.08 -26.89,-26.89l0 0c0,-14.81 12.11,-26.96 26.89,-26.96 70.3,0 132.71,-12.67 189.48,-62.53 83.14,-72.9 92.75,-272.72 92.75,-380.61 0,-14.81 12.08,-26.89 26.89,-26.89z"/>
 </g>
</svg>
