<?xml version="1.0" encoding="UTF-8"?>
<!DOCTYPE svg PUBLIC "-//W3C//DTD SVG 1.1//EN" "http://www.w3.org/Graphics/SVG/1.1/DTD/svg11.dtd">
<!-- Creator: CorelDRAW 2018 (64-Bit) -->
<svg xmlns="http://www.w3.org/2000/svg" xml:space="preserve" width="67.9286mm" height="45.3464mm" version="1.1" style="shape-rendering:geometricPrecision; text-rendering:geometricPrecision; image-rendering:optimizeQuality; fill-rule:evenodd; clip-rule:evenodd"
viewBox="0 0 2589.14 1728.41"
 xmlns:xlink="http://www.w3.org/1999/xlink">
 <defs>
  <style type="text/css">
   <![CDATA[
    .fil3 {fill:#ffd955}
    .fil0 {fill:url(#id0)}
    .fil1 {fill:url(#id1)}
    .fil2 {fill:url(#id2)}
   ]]>
  </style>
  <radialGradient id="id0" gradientUnits="userSpaceOnUse" gradientTransform="matrix(-1.12693 -0 -0 1.66667 564 -367)" cx="265.16" cy="550.08" r="34.53" fx="265.16" fy="550.08">
   <stop offset="0" style="stop-opacity:1; stop-color:#ffd955"/>
   <stop offset="1" style="stop-opacity:1; stop-color:#ffd955"/>
  </radialGradient>
  <radialGradient id="id1" gradientUnits="userSpaceOnUse" gradientTransform="matrix(-1.12693 -0 -0 1.66666 4861 -747)" xlink:href="#id0" cx="2285.45" cy="1120.46" r="34.53" fx="2285.45" fy="1120.46">
  </radialGradient>
  <radialGradient id="id2" gradientUnits="userSpaceOnUse" gradientTransform="matrix(-1.12693 -0 -0 1.66667 5383 -557)" xlink:href="#id0" cx="2530.95" cy="835.27" r="34.53" fx="2530.95" fy="835.27">
  </radialGradient>
 </defs>
 <g id="Слой_x0020_1_0">
  <metadata id="CorelCorpID_0Corel-Layer"/>
  <path class="fil0" d="M161.68 444.88l-0.02 0c-7.12,0 -12.94,5.83 -12.94,12.94 0,52.04 -5.37,148.51 -44.75,183.89 -26.34,23.61 -57.99,29.33 -91.04,29.33 -7.12,0 -12.94,5.86 -12.94,12.97l0 0c0,7.12 5.83,12.94 12.94,12.94 33.84,0 63.82,6.11 91.18,30.1 40,35.09 44.61,131.23 44.61,183.13 0,7.11 5.81,12.94 12.94,12.94l0.02 0c7.11,0 12.94,-5.81 12.94,-12.94 0,-52.02 5.37,-148.53 44.77,-183.89 26.37,-23.63 57.94,-29.35 91.02,-29.35 7.1,0 12.94,-5.81 12.94,-12.94l0 0c0,-7.13 -5.83,-12.97 -12.94,-12.97 -33.82,0 -63.85,-6.1 -91.17,-30.09 -40,-35.08 -44.63,-131.22 -44.63,-183.13 0,-7.12 -5.81,-12.94 -12.94,-12.94z"/>
  <path class="fil1" d="M2181.97 1015.26l-0.02 0c-7.13,0 -12.94,5.83 -12.94,12.94 0,52.04 -5.37,148.51 -44.75,183.89 -26.34,23.61 -57.99,29.33 -91.04,29.33 -7.12,0 -12.94,5.86 -12.94,12.97l0 0c0,7.12 5.83,12.94 12.94,12.94 33.84,0 63.82,6.11 91.18,30.1 40,35.09 44.61,131.23 44.61,183.13 0,7.11 5.81,12.94 12.94,12.94l0.02 0c7.11,0 12.94,-5.81 12.94,-12.94 0,-52.02 5.37,-148.53 44.77,-183.89 26.36,-23.63 57.94,-29.35 91.02,-29.35 7.09,0 12.94,-5.81 12.94,-12.94l0 0c0,-7.13 -5.83,-12.97 -12.94,-12.97 -33.82,0 -63.85,-6.1 -91.17,-30.09 -40,-35.07 -44.62,-131.22 -44.62,-183.13 0,-7.12 -5.81,-12.94 -12.94,-12.94z"/>
  <path class="fil2" d="M2427.48 730.07l-0.02 0c-7.12,0 -12.94,5.83 -12.94,12.94 0,52.04 -5.37,148.51 -44.75,183.89 -26.33,23.61 -57.99,29.33 -91.04,29.33 -7.13,0 -12.94,5.86 -12.94,12.97l0 0c0,7.13 5.83,12.94 12.94,12.94 33.84,0 63.82,6.11 91.18,30.1 40,35.09 44.61,131.23 44.61,183.12 0,7.11 5.81,12.94 12.94,12.94l0.02 0c7.11,0 12.94,-5.81 12.94,-12.94 0,-52.02 5.37,-148.52 44.77,-183.89 26.37,-23.63 57.94,-29.34 91.02,-29.34 7.1,0 12.94,-5.81 12.94,-12.94l0 0c0,-7.12 -5.83,-12.97 -12.94,-12.97 -33.82,0 -63.85,-6.09 -91.17,-30.08 -40,-35.08 -44.63,-131.22 -44.63,-183.13 0,-7.13 -5.81,-12.94 -12.94,-12.94z"/>
  <g id="_1206990160">
   <path class="fil3" d="M597.12 317.93c0.56,-0.07 1.12,-0.14 1.68,-0.22 8.82,-1.12 17.69,-0.63 26.34,1.41 8.96,2.12 17.3,5.93 24.95,11.06 8.45,5.67 15.52,13.01 21.42,21.28 6.05,8.49 10.97,17.78 13.98,27.8 2.73,9 4.12,18.34 3.7,27.75 -0.38,9.12 -2.28,18.01 -5.47,26.56 -3.25,8.67 -7.66,16.78 -12.91,24.41 -5.49,7.95 -11.93,15.25 -18.88,21.95 -7.79,7.5 -16.3,14.3 -25.1,20.59l-60.97 43.46c-5.78,4.12 -12.43,6.16 -19.53,5.49 -8.53,-0.78 -15.05,-6.14 -19.87,-12.9l-142.7 -200.16c-4.8,-6.74 -7.75,-14.69 -5.69,-23 1.7,-6.92 5.76,-12.54 11.56,-16.67l57.52 -41.01c12.5,-8.91 26.16,-17.34 40.45,-23.07 11.54,-4.62 23.77,-7.59 36.27,-7.57 11.87,0.02 23.05,2.85 33.46,8.56 11.09,6.09 20.07,15.01 27.37,25.27 4.37,6.12 7.91,12.73 10.46,19.84 2.42,6.77 3.76,13.89 3.97,21.1 0.18,6.12 -0.54,12.16 -2.02,18.06zm429.47 -153.37c5.94,21.39 9.56,43.72 8.82,65.97 -0.67,19.67 -4.82,38.89 -13.57,56.6 -8.56,17.32 -20.85,31.83 -36.22,43.57 -17.04,13.01 -37,21.59 -57.54,27.3 -19.76,5.49 -40.63,8.78 -61.19,7.42 -18.38,-1.23 -35.72,-6.23 -51.41,-15.94 -16.17,-9.99 -28.96,-24.06 -39.04,-40.07 -12.05,-19.17 -20.36,-41.06 -26.41,-62.8 -5.85,-21.05 -9.28,-42.99 -8.49,-64.87 0.72,-19.58 4.93,-38.57 13.68,-56.17 8.58,-17.27 20.92,-31.72 36.22,-43.45 17.11,-13.12 37.09,-21.79 57.76,-27.53 19.53,-5.42 39.99,-8.62 60.28,-7.35 18.35,1.14 35.71,6.23 51.4,15.86 16.17,9.92 29.05,23.66 39.27,39.55 12.16,18.84 20.47,40.38 26.45,61.89zm206.45 -36.89c-0.04,3.45 -0.09,6.9 -0.16,10.35l-3.05 147.58c-0.07,3.59 -1.15,7.01 -3.61,10.46 -2.28,2.84 -5.38,4.79 -8.72,6.11 -3.38,1.33 -7.17,1.99 -10.77,2.38 -4.7,0.54 -9.57,0.58 -14.31,0.49 -4.68,-0.11 -9.5,-0.34 -14.14,-1.07 -3.58,-0.56 -7.21,-1.32 -10.28,-2.74 -3.7,-1.5 -6.94,-3.94 -9.01,-7.42 -1.75,-2.93 -2.62,-6.3 -2.55,-9.72l5.24 -253.35c0.2,-9.07 3.14,-17.52 10.28,-23.41 6.25,-5.17 13.87,-7.46 21.97,-7.3l30.69 0.65c5.51,0.13 11.29,0.63 16.62,2.11 4.95,1.37 9.54,3.58 13.64,6.67 4.3,3.25 7.82,7.5 10.75,12 3.25,4.99 6.02,10.41 8.35,15.46l52.7 104.36c3.01,6.2 6.01,12.41 9.05,18.59 1.32,2.66 2.6,5.31 3.88,7.99 0.05,-4.37 0.13,-8.74 0.22,-13.1l2.74 -132.29c0.07,-3.8 1.38,-7.37 3.69,-10.37 2.26,-2.91 5.46,-4.93 8.82,-6.32 3.56,-1.46 7.46,-2.11 11.27,-2.45 4.64,-0.43 9.43,-0.4 14.09,-0.31 4.53,0.09 9.16,0.31 13.66,0.88 3.85,0.51 7.79,1.34 11.26,3.13 3.25,1.68 6.23,4.05 8.11,7.25 1.75,2.98 2.58,6.27 2.51,9.7l-5.24 253.33c-0.09,4.54 -0.96,8.96 -2.96,13.48 -1.88,3.85 -4.41,7.21 -7.66,9.97 -3.25,2.75 -6.99,4.68 -11.09,5.82 -3.7,1.03 -7.46,1.5 -11.31,1.43l-24.46 -0.51c-5.37,-0.11 -10.79,-0.72 -16.15,-2.24 -5.26,-1.61 -9.97,-4.39 -14.09,-8.02 -4.37,-3.85 -7.91,-8.64 -10.93,-13.62 -3.69,-6.05 -6.92,-12.54 -9.86,-18.71l-67.26 -133.34c-0.63,-1.28 -1.26,-2.57 -1.89,-3.87zm551.59 167.56c-5.26,16.2 -12.79,31.69 -23.41,45.09 -9.76,12.3 -21.61,22.26 -35.77,29.08 -14.43,6.94 -30.02,10.03 -45.98,10.26 -18.17,0.27 -36.26,-3.31 -53.48,-8.91 -16.31,-5.31 -32.23,-12.52 -46.23,-22.49 -12.67,-9.01 -23.34,-20.14 -30.97,-33.73 -7.57,-13.49 -11.42,-28.27 -12.19,-43.68 -0.87,-17.33 2.38,-34.69 7.71,-51.12l52.92 -163.08c1.17,-3.61 3.45,-6.67 6.54,-8.85 3.36,-2.37 7.42,-3.23 11.49,-3.25 3.65,-0.02 7.44,0.61 11.02,1.3 4.97,0.96 9.96,2.44 14.74,3.99 4.7,1.54 9.48,3.23 13.97,5.31 3.32,1.56 6.77,3.29 9.7,5.49 2.98,2.24 5.55,5.06 7.19,8.94 1.39,3.67 1.52,7.64 0.31,11.38l-51.41 158.42c-2.66,8.17 -4.59,16.95 -4.5,25.55 0.06,6.32 1.12,12.68 3.9,18.41 2.6,5.33 6.23,9.83 10.88,13.51 5.42,4.3 11.72,7.3 18.28,9.43 6.52,2.12 13.44,3.38 20.3,2.98 5.82,-0.32 11.29,-1.75 16.23,-4.44 5.42,-3.07 9.93,-7.28 13.68,-12.25 4.66,-6.2 7.95,-13.46 10.33,-20.81l52.42 -161.52c1.17,-3.61 3.45,-6.67 6.54,-8.87 3.29,-2.33 7.26,-3.2 11.24,-3.27 3.72,-0.07 7.62,0.58 11.27,1.32 4.93,0.98 9.83,2.42 14.6,3.96 4.71,1.54 9.5,3.22 13.98,5.33 3.29,1.54 6.69,3.27 9.59,5.45 3.18,2.39 5.89,5.44 7.19,9.25 1.23,3.59 1.26,7.41 0.11,11l-52.19 160.82zm258.75 204.81c-9.36,11.94 -20.67,22.13 -34.43,28.72 -12.48,5.98 -25.72,9.18 -39.56,9.21 -13.95,0.04 -27.52,-2.84 -40.49,-7.91 -13.8,-5.42 -26.52,-13.04 -38.17,-22.18 -7.71,-6.05 -14.96,-12.7 -21.37,-20.13 -5.31,-6.14 -10.35,-12.65 -14.71,-19.53 -3.47,-5.49 -6.79,-11.29 -9.16,-17.34 -1.66,-4.23 -3.22,-8.87 -3.92,-13.82 -0.51,-5.07 0.76,-10.12 2.91,-14.69 2.44,-5.2 6.25,-10.33 9.79,-14.85 2.55,-3.25 5.16,-6.48 8.02,-9.45 2.29,-2.4 4.82,-4.75 7.82,-6.7 3.03,-1.88 6.49,-3.13 10.64,-3.18 3.72,0.14 7.12,1.46 10.04,3.76 4.12,3.21 6.47,8.38 8.13,13.22 1.61,4.73 3.72,9.43 5.85,13.93 2.91,6.13 6.7,12.03 10.58,17.56 4.81,6.81 11.13,12.75 17.65,17.87 4.08,3.2 8.65,6.18 13.49,8.07 3.67,1.43 7.57,2.42 11.53,2.42 3.18,0 6.09,-0.7 8.92,-2.18 3.22,-1.66 5.87,-4.08 8.1,-6.92 2.2,-2.84 3.7,-5.96 3.74,-9.59 0.05,-4.88 -1.03,-9.72 -2.66,-14.31 -2.2,-6.25 -5.04,-12.34 -8.16,-18.17 -3.83,-7.15 -7.61,-14.33 -11.31,-21.54 -4.01,-7.84 -7.54,-15.91 -10.53,-24.19 -3.18,-8.76 -5.19,-17.87 -5.85,-27.15 -0.74,-9.95 0.43,-19.82 3.11,-29.41 3.14,-11.29 9.3,-21.64 16.5,-30.8 8.6,-10.98 19.08,-20.32 31.69,-26.45 11.4,-5.53 23.57,-8.55 36.26,-8.63 12.83,-0.09 25.22,2.62 37.11,7.39 12.48,5.02 24.04,11.96 34.63,20.27 5.69,4.46 11,9.4 15.97,14.65 4.75,5.02 9.21,10.33 13.21,15.97 3.49,4.97 6.67,10.15 9.48,15.79 1.86,3.94 4.05,8.78 4.57,13.12 0.33,2.6 0.42,5.35 -0.09,8.2 -0.47,2.24 -1.3,4.39 -2.28,6.47 -1.15,2.45 -2.69,4.79 -4.24,7.02 -1.92,2.73 -3.96,5.4 -6.02,8.04 -2.33,3 -4.75,6 -7.31,8.8 -2.1,2.31 -4.39,4.55 -6.9,6.41 -2.89,2.13 -6.23,3.72 -9.86,3.98 -4.15,0.31 -8.04,-1.05 -11.31,-3.59 -3.61,-2.82 -5.78,-7.39 -7.48,-11.55 -1.72,-4.23 -3.61,-8.38 -5.65,-12.44 -2.53,-5.08 -5.75,-9.92 -9.03,-14.53 -3.74,-5.26 -8.31,-9.74 -13.37,-13.71 -3.38,-2.64 -7.23,-5.13 -11.29,-6.61 -2.82,-1.01 -5.85,-1.68 -8.87,-1.56 -2.33,0.11 -4.48,0.67 -6.5,1.84 -2.39,1.37 -4.41,3.13 -6.09,5.29 -2.22,2.82 -3.6,5.89 -3.67,9.49 -0.11,4.84 0.9,9.65 2.58,14.16 2.35,6.36 5.37,12.52 8.6,18.46 3.92,7.19 7.73,14.43 11.51,21.7 4.07,7.86 7.61,16 10.68,24.31 3.27,8.87 5.42,18.03 6.16,27.46 0.79,9.92 -0.33,19.76 -2.98,29.36 -3.07,11.07 -8.93,21.17 -15.99,30.17zm-1575.53 -179.84l29.88 41.93 17.16 -12.23c3.99,-2.84 8.87,-6.76 11.55,-10.93 1.83,-2.84 3.25,-5.98 3.72,-9.34 0.45,-3.2 0.2,-6.32 -0.69,-9.43 -1.05,-3.59 -2.73,-6.85 -4.89,-9.9 -2.24,-3.16 -4.93,-6.01 -8.16,-8.18 -2.37,-1.57 -4.93,-2.6 -7.77,-2.84 -3.47,-0.29 -7.05,0.47 -10.32,1.57 -5.38,1.8 -11.22,5.63 -15.81,8.9l-14.67 10.44zm66.82 93.72l34.02 47.73 24.86 -17.7c4.53,-3.23 9.19,-7.1 12.61,-11.54 2.42,-3.14 4.3,-6.61 5.33,-10.46 0.94,-3.5 1.03,-6.97 0.36,-10.55 -0.76,-4.06 -2.73,-7.86 -5.11,-11.2 -2.66,-3.72 -5.87,-7.12 -9.77,-9.54 -3.24,-2 -6.67,-3.09 -10.44,-3.38 -4.5,-0.34 -9.14,0.67 -13.37,2.15 -6.83,2.4 -13.84,6.92 -19.71,11.09l-18.77 13.41zm413.77 -224.63c-3.43,-12.34 -7.77,-24.58 -13.46,-36.08 -4.32,-8.72 -9.88,-17.03 -17.2,-23.52 -6.3,-5.6 -13.55,-9.19 -21.83,-10.86 -9.9,-1.99 -20.74,-0.34 -30.37,2.33 -9.77,2.73 -19.74,7.1 -27.02,14.34 -6.34,6.29 -10.97,13.71 -13.68,22.22 -3,9.41 -3.74,19.26 -3.04,29.07 0.89,11.89 3.09,23.61 6.29,35.09 3.52,12.68 7.95,25.34 13.76,37.18 4.36,8.87 9.97,17.29 17.33,23.97 6.16,5.6 13.2,9.09 21.39,10.62 9.99,1.88 20.99,0.13 30.66,-2.57 9.75,-2.71 19.76,-7.08 27.08,-14.29 6.36,-6.29 10.95,-13.64 13.6,-22.18 2.98,-9.57 3.69,-19.64 2.95,-29.59 -0.9,-12.09 -3.23,-24.06 -6.47,-35.73z"/>
   <path class="fil3" d="M1303.41 778.44c-0.98,-6.34 -1.48,-15.39 -1.68,-25.58 0.05,-5.65 0.02,-11.47 -0.07,-17.43l0 -1.01c0.22,-24.52 1.37,-50.31 1.37,-60.39 0,-66.12 69.88,-105.21 129.66,-105.21 59.78,0 129.65,39.09 129.71,104.45 -5.89,28.56 -91.82,68.99 -116.21,78.26 -37.96,14.45 -87.4,27.69 -128.26,27.69 -3.31,0 -9.4,-0.13 -14.51,-0.77zm-86.34 0c0.98,-6.32 1.48,-15.3 1.68,-25.44l0 -0.45c-0.06,-5.76 -0.02,-11.69 0.07,-17.76 -0.2,-24.63 -1.38,-50.66 -1.38,-60.78 0,-66.12 -69.88,-105.21 -129.65,-105.21 -59.78,0 -129.65,39.09 -129.71,104.45 5.89,28.56 91.83,68.99 116.21,78.26 37.96,14.45 87.4,27.69 128.27,27.69 3.3,0 9.4,-0.13 14.51,-0.77zm-129.28 -292.74c70.96,0 133.79,30.75 172.44,78.01 38.64,-47.26 101.49,-78.01 172.45,-78.01 117.5,0 212.75,84.3 212.75,188.31 0,43 -35.91,82.6 -86.32,114.3l133.09 0 99.52 0 128.3 0c47.76,0 86.84,39.2 86.84,86.84l0 125.18c0,47.64 -39.2,86.84 -86.84,86.84l-57.68 0 0 554.39c0,47.17 -39.67,86.84 -86.84,86.84l-230.15 0 -86.8 0 -396.65 0 -86.8 0 -230.13 0c-47.15,0 -86.84,-39.08 -86.84,-86.84l0 -554.39 -57.68 0c-47.62,0 -86.84,-39.08 -86.84,-86.84l0 -125.18c0,-47.77 39.08,-86.84 86.84,-86.84l113.31 0 113.31 0 134.3 0c-50.4,-31.7 -86.32,-71.3 -86.32,-114.3 0,-104.02 95.26,-188.31 212.76,-188.31zm-112.69 1155.96l0 -554.48 -230.25 0 0.11 554.52 230.13 -0.03zm0 -641.24l0 -125.3 -374.79 0.04 0.13 125.3 374.66 -0.04zm86.75 -125.32l0.02 125.31 396.68 -0.04 0 -125.3 -396.7 0.03zm0.02 212.07l0.03 554.48 396.65 -0.05 0 -554.43 -396.68 0zm483.43 -212.11l0.02 125.3 374.84 -0.03 -0.13 -125.31 -374.73 0.04zm0.02 212.11l0.04 554.43 230.28 -0.04 0 -554.39 -230.32 0z"/>
  </g>
 </g>
</svg>
