<?xml version="1.0" encoding="UTF-8"?>
<!DOCTYPE svg PUBLIC "-//W3C//DTD SVG 1.1//EN" "http://www.w3.org/Graphics/SVG/1.1/DTD/svg11.dtd">
<!-- Creator: CorelDRAW 2018 (64-Bit) -->
<svg xmlns="http://www.w3.org/2000/svg" xml:space="preserve" width="77.9587mm" height="40.5711mm" version="1.1" style="shape-rendering:geometricPrecision; text-rendering:geometricPrecision; image-rendering:optimizeQuality; fill-rule:evenodd; clip-rule:evenodd"
viewBox="0 0 3225.89 1678.81"
 xmlns:xlink="http://www.w3.org/1999/xlink">
 <defs>
  <style type="text/css">
   <![CDATA[
    .fil0 {fill:#D72120}
   ]]>
  </style>
 </defs>
 <g id="Слой_x0020_1_0">
  <metadata id="CorelCorpID_0Corel-Layer"/>
  <path class="fil0" d="M1632.39 160.68l53.41 120.4 125.33 9.86c14.64,1.57 18.82,11.81 6.88,22.05l-98 88 29.36 122.24c3.02,14.41 -5.42,21.54 -18.84,13.35l-113.98 -66 -107.18 65.69c-12.77,7.33 -22.16,1.51 -18.53,-13.79l27.56 -128.8 -95.6 -81.65c-10.92,-9.88 -8.28,-20.61 7.39,-21.88l131.01 -13.59 48.1 -116.15c6.01,-13.43 17.04,-14.24 23.09,0.27zm1249.82 408.03c149.5,0 270.7,121.2 270.7,270.7 0,149.5 -121.2,270.7 -270.7,270.7 -149.5,0 -270.7,-121.2 -270.7,-270.7 0,-149.5 121.2,-270.7 270.7,-270.7zm0 -72.99c5.1,0 10.18,0.13 15.22,0.35l0 -16.01c0,-40.45 -33.41,-73.86 -73.86,-73.86l-298.63 0 -20.86 -18.93c-236.64,-214.64 -568.17,-314.3 -883.53,-314.3 -315.36,0 -646.89,99.65 -883.53,314.3l-20.86 18.93 -298.63 0c-40.48,0 -73.86,33.39 -73.86,73.86l0 15.65c189.81,0 343.68,153.87 343.68,343.68 0,189.81 -153.87,343.68 -343.68,343.68l0 15.65c0,40.45 33.41,73.86 73.86,73.86l298.63 0 20.86 18.93c236.64,214.64 568.17,314.3 883.53,314.3 315.36,0 646.89,-99.65 883.53,-314.3l20.86 -18.93 298.63 0c40.42,0 73.86,-33.43 73.86,-73.86l0 -16.01c-5.05,0.22 -10.12,0.35 -15.22,0.35 -189.81,0 -343.68,-153.87 -343.68,-343.68 0,-189.81 153.87,-343.68 343.68,-343.68zm88.21 11.45c147.06,38.94 255.47,172.92 255.47,332.23 0,159.31 -108.41,293.29 -255.47,332.23l0 27.1c0,80.71 -66.14,146.84 -146.84,146.84l-270.46 0c-224.8,203.91 -559.15,333.23 -932.56,333.23 -373.41,0 -707.76,-129.32 -932.56,-333.23l-270.46 0c-80.71,0 -146.84,-66.08 -146.84,-146.84l0 -23.45c-154.75,-33.47 -270.7,-171.13 -270.7,-335.89 0,-164.76 115.95,-302.42 270.7,-335.89l0 -23.45c0,-80.76 66.08,-146.85 146.84,-146.85l270.46 0c224.8,-203.91 559.15,-333.23 932.56,-333.23 373.41,0 707.76,129.32 932.56,333.23l270.46 0c80.76,0 146.84,66.14 146.84,146.85l0 27.1zm-2626.74 61.54c149.5,0 270.7,121.2 270.7,270.7 0,149.5 -121.2,270.7 -270.7,270.7 -149.5,0 -270.7,-121.2 -270.7,-270.7 0,-149.5 121.2,-270.7 270.7,-270.7zm414.84 324.99l48.01 -12.9 2.94 14.05c1.31,6.26 4.04,11.57 8.77,15.91 4.39,4.03 9.5,5.55 15.42,5.55 23.8,0 27.15,-19.57 27.15,-39.86l0 -176.14 50.6 0 0 177.77c0,7.09 -0.53,14.17 -1.63,21.17 -1.22,7.73 -3.56,15.24 -6.62,22.43 -3.29,7.73 -7.7,14.87 -13.37,21.09 -6.22,6.82 -14.02,11.79 -22.46,15.39 -9.82,4.19 -20.44,5.82 -31.07,5.82 -18.07,0 -35.1,-4.7 -49.43,-15.93 -13.65,-10.71 -22.32,-24.86 -25.77,-41.86l-2.54 -12.5zm264.78 3.82l-25.09 60.6 -55.46 0 111.43 -257.81 40.66 0 110.7 257.81 -55.69 0 -25.41 -60.6 -101.14 0zm381.81 -20.48l40.99 26.35 -7.51 11.45c-9.97,15.22 -23.65,26.84 -39.6,35.45 -17.96,9.7 -37.78,13.69 -58.09,13.69 -36.99,0 -69.68,-12 -95.81,-38.39 -26.18,-26.43 -37.97,-59.34 -37.97,-96.38 0,-37.1 11.88,-70 38.16,-96.4 26.14,-26.26 58.7,-38.37 95.63,-38.37 18.48,0 36.38,3.6 53.25,11.11 15.7,6.98 29.66,16.97 39.84,30.98l7.94 10.93 -41.95 30.77 -7.85 -11.93c-4.8,-7.3 -12.36,-12.76 -19.98,-16.83 -9.62,-5.14 -20.03,-7.36 -30.91,-7.36 -23.47,0 -43.66,7.15 -59.44,24.79 -15.85,17.71 -22.78,38.62 -22.78,62.31 0,23.71 6.99,44.59 22.91,62.27 15.81,17.56 35.85,24.83 59.31,24.83 23.81,0 43.03,-7.98 56.47,-28.16l7.4 -11.11zm133.2 -90.72l91.15 -86.02 74.34 0 -132.12 118.8 135.41 139.01 -72.57 0 -96.22 -102.46 0 102.46 -50.6 0 0 -257.81 50.6 0 0 86.02zm283.06 84.8l0 86.99 -82.85 0 0 -257.81 98.28 0c25.47,0 51.89,4.54 73.3,19.14 22.27,15.2 30.52,39.23 30.52,65.46 0,18.45 -4.61,36 -16.06,50.69 -10.28,13.2 -23.4,22.76 -39.26,28.13 -15.96,5.41 -33.01,7.4 -49.8,7.4l-14.12 0zm426.88 -42.89c0,38 -12.08,71.78 -39.69,98.25 -27.53,26.4 -61.73,37.83 -99.64,37.83 -37.82,0 -71.86,-11.5 -99.32,-37.83 -27.61,-26.47 -39.69,-60.24 -39.69,-98.25 0,-37.78 11.76,-71.6 39.67,-97.58 27.63,-25.72 61.86,-36.54 99.33,-36.54 37.55,0 71.95,10.75 99.66,36.54 27.91,25.97 39.67,59.8 39.67,97.58zm169.18 -53.22l0 183.1 -82.86 0 0 -183.1 -65.16 0 0 -74.71 213.17 0 0 74.71 -65.16 0zm-1343.58 0.34l-30.5 73.51 61 0 -30.5 -73.51zm747.52 -2.95l0 27.26 9.89 0c10.87,0 26.5,-0.41 26.5,-14.45 0,-12.78 -16.04,-12.82 -25.52,-12.82l-10.87 0zm340.12 55.83c0,-15.63 -4.15,-29.71 -14.92,-41.23 -10.24,-10.96 -22.8,-15.57 -37.65,-15.57 -14.82,0 -27.32,4.58 -37.44,15.52 -10.71,11.56 -14.79,25.68 -14.79,41.28 0,15.89 4.04,30.46 14.86,42.33 10.08,11.05 22.49,15.77 37.37,15.77 14.95,0 27.41,-4.76 37.58,-15.82 10.89,-11.85 14.99,-26.37 14.99,-42.29zm720.72 -193.15l-0.01 0c-6.09,0 -11.06,4.98 -11.06,11.05 0,44.47 -4.58,126.89 -38.23,157.12 -22.5,20.18 -49.55,25.06 -77.79,25.06 -6.09,0 -11.06,5.01 -11.06,11.08l0 0c0,6.09 4.98,11.06 11.06,11.06 28.91,0 54.53,5.22 77.91,25.72 34.18,29.98 38.11,112.13 38.11,156.47 0,6.07 4.97,11.05 11.06,11.05l0.01 0c6.07,0 11.06,-4.97 11.06,-11.05 0,-44.45 4.58,-126.91 38.25,-157.12 22.53,-20.19 49.51,-25.07 77.77,-25.07 6.06,0 11.06,-4.97 11.06,-11.06l0 0c0,-6.09 -4.98,-11.08 -11.06,-11.08 -28.9,0 -54.56,-5.21 -77.9,-25.7 -34.18,-29.97 -38.13,-112.12 -38.13,-156.48 0,-6.09 -4.97,-11.05 -11.06,-11.05zm-2538.53 0l-0.01 0c-6.09,0 -11.06,4.98 -11.06,11.05 0,44.47 -4.58,126.89 -38.23,157.12 -22.5,20.18 -49.55,25.06 -77.79,25.06 -6.09,0 -11.06,5.01 -11.06,11.08l0 0c0,6.09 4.98,11.06 11.06,11.06 28.91,0 54.53,5.22 77.91,25.72 34.18,29.98 38.11,112.13 38.11,156.47 0,6.07 4.97,11.05 11.06,11.05l0.01 0c6.07,0 11.06,-4.97 11.06,-11.05 0,-44.45 4.58,-126.91 38.25,-157.12 22.53,-20.19 49.51,-25.07 77.77,-25.07 6.06,0 11.06,-4.97 11.06,-11.06l0 0c0,-6.09 -4.98,-11.08 -11.06,-11.08 -28.9,0 -54.56,-5.21 -77.9,-25.7 -34.18,-29.97 -38.13,-112.12 -38.13,-156.48 0,-6.09 -4.97,-11.05 -11.06,-11.05zm1939.4 459.52l-33.65 75.87 -78.98 6.21c-9.22,0.99 -11.86,7.44 -4.34,13.89l61.76 55.46 -18.5 77.03c-1.91,9.08 3.41,13.58 11.87,8.42l71.82 -41.6 67.54 41.4c8.05,4.61 13.97,0.95 11.67,-8.69l-17.37 -81.16 60.24 -51.45c6.88,-6.23 5.22,-12.99 -4.66,-13.79l-82.56 -8.57 -30.31 -73.19c-3.79,-8.47 -10.74,-8.98 -14.55,0.17zm-284.3 60.64l-43.53 98.14 -102.16 8.03c-11.93,1.28 -15.33,9.62 -5.61,17.97l79.89 71.73 -23.93 99.63c-2.47,11.75 4.42,17.56 15.36,10.89l92.9 -53.81 87.36 53.55c10.41,5.97 18.07,1.22 15.1,-11.24l-22.46 -104.98 77.92 -66.54c8.9,-8.06 6.75,-16.8 -6.02,-17.84l-106.78 -11.08 -39.21 -94.67c-4.91,-10.95 -13.89,-11.61 -18.82,0.22zm-1043.49 -60.64l33.65 75.87 78.98 6.21c9.22,0.99 11.86,7.44 4.34,13.89l-61.76 55.46 18.5 77.03c1.91,9.08 -3.41,13.58 -11.87,8.42l-71.82 -41.6 -67.54 41.4c-8.05,4.61 -13.97,0.95 -11.67,-8.69l17.37 -81.16 -60.24 -51.45c-6.88,-6.23 -5.22,-12.99 4.66,-13.79l82.56 -8.57 30.31 -73.19c3.79,-8.47 10.74,-8.98 14.55,0.17zm284.3 60.64l43.53 98.14 102.16 8.03c11.93,1.28 15.33,9.62 5.61,17.97l-79.89 71.73 23.93 99.63c2.47,11.75 -4.42,17.56 -15.36,10.89l-92.9 -53.81 -87.36 53.55c-10.41,5.97 -18.07,1.22 -15.1,-11.24l22.46 -104.98 -77.92 -66.54c-8.9,-8.06 -6.75,-16.8 6.02,-17.84l106.78 -11.08 39.21 -94.67c4.91,-10.95 13.89,-11.61 18.82,0.22zm0 -915.85l43.53 98.13 102.15 8.04c11.93,1.28 15.34,9.62 5.61,17.97l-79.88 71.73 23.93 99.64c2.46,11.75 -4.42,17.56 -15.36,10.88l-92.91 -53.8 -87.36 53.54c-10.41,5.98 -18.07,1.23 -15.1,-11.24l22.46 -104.98 -77.92 -66.55c-8.9,-8.06 -6.75,-16.8 6.02,-17.83l106.78 -11.08 39.21 -94.67c4.9,-10.95 13.89,-11.61 18.82,0.22zm-284.3 128.83l33.65 75.87 78.98 6.22c9.23,0.98 11.86,7.44 4.34,13.89l-61.75 55.45 18.5 77.03c1.9,9.08 -3.41,13.58 -11.87,8.42l-71.83 -41.59 -67.54 41.4c-8.05,4.62 -13.97,0.95 -11.67,-8.69l17.37 -81.16 -60.24 -51.45c-6.88,-6.23 -5.22,-12.99 4.66,-13.79l82.55 -8.57 30.32 -73.19c3.79,-8.46 10.74,-8.97 14.55,0.17zm1043.49 -128.83l-43.53 98.14 -102.16 8.03c-11.93,1.28 -15.33,9.62 -5.61,17.97l79.89 71.73 -23.93 99.63c-2.47,11.75 4.42,17.56 15.36,10.89l92.9 -53.81 87.36 53.55c10.41,5.97 18.07,1.22 15.1,-11.24l-22.46 -104.98 77.92 -66.54c8.9,-8.06 6.75,-16.8 -6.02,-17.84l-106.78 -11.08 -39.21 -94.67c-4.91,-10.95 -13.89,-11.61 -18.82,0.22zm284.3 128.84l-33.65 75.87 -78.98 6.21c-9.22,0.99 -11.86,7.44 -4.34,13.89l61.76 55.46 -18.5 77.03c-1.91,9.08 3.41,13.58 11.87,8.42l71.82 -41.6 67.54 41.4c8.05,4.61 13.97,0.95 11.67,-8.69l-17.37 -81.16 60.24 -51.45c6.88,-6.23 5.22,-12.99 -4.66,-13.79l-82.56 -8.57 -30.31 -73.19c-3.79,-8.47 -10.74,-8.98 -14.55,0.17zm-650.71 797.55l53.41 120.4 125.33 9.86c14.64,1.57 18.82,11.81 6.89,22.04l-98.01 88 29.36 122.24c3.02,14.41 -5.42,21.54 -18.84,13.36l-113.98 -66.01 -107.19 65.7c-12.77,7.32 -22.16,1.5 -18.53,-13.8l27.56 -128.8 -95.6 -81.64c-10.92,-9.88 -8.28,-20.62 7.39,-21.89l131.01 -13.59 48.1 -116.14c6.02,-13.44 17.04,-14.24 23.09,0.26z"/>
 </g>
</svg>
