<?xml version="1.0" encoding="UTF-8"?>
<!DOCTYPE svg PUBLIC "-//W3C//DTD SVG 1.1//EN" "http://www.w3.org/Graphics/SVG/1.1/DTD/svg11.dtd">
<!-- Creator: CorelDRAW 2018 (64-Bit) -->
<svg xmlns="http://www.w3.org/2000/svg" xml:space="preserve" width="54.527mm" height="45.8611mm" version="1.1" style="shape-rendering:geometricPrecision; text-rendering:geometricPrecision; image-rendering:optimizeQuality; fill-rule:evenodd; clip-rule:evenodd"
viewBox="0 0 10759.34 9049.38"
 xmlns:xlink="http://www.w3.org/1999/xlink">
 <defs>
  <style type="text/css">
   <![CDATA[
    .fil0 {fill:#D72120}
   ]]>
  </style>
 </defs>
 <g id="Слой_x0020_1_0">
  <metadata id="CorelCorpID_0Corel-Layer"/>
  <g id="_1178428368">
   <path class="fil0" d="M7708.73 1447.35l-0.06 0c-26.22,0 -47.59,21.45 -47.59,47.59 0,191.44 -19.75,546.36 -164.64,676.52 -96.88,86.88 -213.36,107.92 -334.95,107.92 -26.2,0 -47.59,21.55 -47.59,47.71l0 0c0,26.2 21.45,47.59 47.59,47.59 124.51,0 234.79,22.49 335.47,110.76 147.16,129.11 164.13,482.81 164.13,673.71 0,26.16 21.37,47.59 47.59,47.59l0.06 0c26.16,0 47.59,-21.37 47.59,-47.59 0,-191.38 19.75,-546.42 164.7,-676.52 97,-86.92 213.17,-107.95 334.87,-107.95 26.11,0 47.61,-21.39 47.61,-47.59l0 0c0,-26.22 -21.45,-47.71 -47.61,-47.71 -124.43,0 -234.89,-22.44 -335.41,-110.7 -147.16,-129.05 -164.17,-482.75 -164.17,-673.73 0,-26.2 -21.39,-47.59 -47.59,-47.59z"/>
   <path class="fil0" d="M2224.92 4003.51l-0.06 0c-26.22,0 -47.61,21.45 -47.61,47.59 0,191.44 -19.73,546.36 -164.63,676.52 -96.9,86.88 -213.36,107.92 -334.95,107.92 -26.2,0 -47.59,21.55 -47.59,47.71l0 0c0,26.2 21.45,47.59 47.59,47.59 124.51,0 234.79,22.49 335.47,110.76 147.16,129.11 164.11,482.81 164.11,673.71 0,26.16 21.39,47.59 47.61,47.59l0.06 0c26.15,0 47.59,-21.37 47.59,-47.59 0,-191.38 19.75,-546.42 164.7,-676.52 97,-86.92 213.17,-107.95 334.87,-107.95 26.11,0 47.59,-21.39 47.59,-47.59l0 0c0,-26.22 -21.43,-47.71 -47.59,-47.71 -124.45,0 -234.91,-22.44 -335.41,-110.7 -147.16,-129.05 -164.17,-482.75 -164.17,-673.73 0,-26.2 -21.39,-47.59 -47.59,-47.59z"/>
   <path class="fil0" d="M6482.68 6106.88l-0.06 0c-26.2,0 -47.59,21.43 -47.59,47.59 0,191.44 -19.75,546.36 -164.64,676.52 -96.88,86.86 -213.34,107.9 -334.93,107.9 -26.22,0 -47.59,21.57 -47.59,47.71l0 0c0,26.22 21.43,47.61 47.59,47.61 124.49,0 234.79,22.47 335.47,110.74 147.16,129.11 164.11,482.81 164.11,673.73 0,26.15 21.39,47.59 47.59,47.59l0.06 0c26.16,0 47.59,-21.39 47.59,-47.59 0,-191.38 19.75,-546.42 164.7,-676.52 97,-86.94 213.19,-107.95 334.89,-107.95 26.09,0 47.59,-21.39 47.59,-47.61l0 0c0,-26.2 -21.45,-47.71 -47.59,-47.71 -124.45,0 -234.91,-22.44 -335.41,-110.7 -147.16,-129.05 -164.19,-482.75 -164.19,-673.71 0,-26.22 -21.37,-47.59 -47.59,-47.59z"/>
   <path class="fil0" d="M7513.03 5459.31l541.06 312.38 -153.85 266.44 -541.27 -312.5c56.69,-85.16 108.19,-174.14 154.07,-266.32z"/>
   <path class="fil0" d="M7720.87 4852.57l603.45 161.69 -79.64 297.19 -603.17 -161.61c32.44,-96.55 59,-195.8 79.36,-297.26z"/>
   <path class="fil0" d="M7764.16 4212.65l1365.11 0 0 307.7 -1365.11 0c3.16,-50.89 4.93,-102.17 4.93,-153.85 0,-51.68 -1.78,-102.96 -4.93,-153.85z"/>
   <path class="fil0" d="M7641.51 3583.22l603.17 -161.61 79.68 297.19 -603.45 161.7c-20.36,-101.48 -46.92,-200.74 -79.4,-297.28z"/>
   <path class="fil0" d="M6405.39 2166.06l312.38 -541.04 266.44 153.83 -312.5 541.27c-85.16,-56.69 -174.1,-108.19 -266.32,-154.07z"/>
   <path class="fil0" d="M5798.62 1958.22l161.7 -603.45 297.19 79.64 -161.61 603.17c-96.55,-32.44 -195.8,-59 -297.28,-79.36z"/>
   <path class="fil0" d="M5158.73 1914.93l0 -983.19 307.7 0 0 983.19c-50.89,-3.14 -102.17,-4.93 -153.85,-4.93 -51.68,0 -102.96,1.74 -153.85,4.93z"/>
   <path class="fil0" d="M4529.26 2037.58l-161.61 -603.17 297.19 -79.64 161.69 603.45c-101.46,20.36 -200.72,46.88 -297.26,79.36z"/>
   <path class="fil0" d="M3953.45 2320.12l-312.5 -541.27 266.44 -153.83 312.38 541.04c-92.19,45.88 -181.16,97.38 -266.32,154.07z"/>
   <path class="fil0" d="M3470.33 2741.86l-442.16 -442.14 217.57 -217.61 442.14 442.14c-76.96,67.94 -149.61,140.63 -217.55,217.61z"/>
   <path class="fil0" d="M3112.13 3273.74l-1304.79 -741.99 153.83 -266.48 1305.02 742.11c-56.69,85.22 -108.19,174.14 -154.07,266.36z"/>
   <path class="fil0" d="M2904.25 3880.5l-603.45 -161.7 79.66 -297.19 603.19 161.61c-32.44,96.51 -59.04,195.8 -79.4,297.28z"/>
   <path class="fil0" d="M3266.2 5725.63l-541.27 312.5 -153.85 -266.44 541.06 -312.38c45.92,92.19 97.38,181.16 154.07,266.32z"/>
   <path class="fil0" d="M3687.92 6208.76l-442.14 442.14 -217.61 -217.55 442.16 -442.14c67.94,76.96 140.63,149.61 217.59,217.55z"/>
   <path class="fil0" d="M4219.82 6566.95l-718.09 1137.74 -266.48 -153.85 718.21 -1137.95c85.16,56.69 174.14,108.19 266.36,154.07z"/>
   <path class="fil0" d="M4826.58 6774.83l-161.7 603.45 -297.19 -79.68 161.61 -603.17c96.55,32.44 195.8,59.04 297.28,79.4z"/>
   <path class="fil0" d="M5466.43 6818.1l0 625.19 -307.7 0 0 -625.19c50.89,3.14 102.17,4.91 153.85,4.91 51.68,0 102.96,-1.78 153.85,-4.91z"/>
   <path class="fil0" d="M7154.83 5991.21l656.96 656.94 -217.61 217.57 -656.96 -656.96c76.94,-67.9 149.67,-140.59 217.61,-217.55z"/>
   <path class="fil0" d="M5312.58 2525.3c1016.9,0 1841.21,824.31 1841.21,1841.21 0,1016.9 -824.31,1841.21 -1841.21,1841.21 -1016.9,0 -1841.21,-824.31 -1841.21,-1841.21 0,-1016.9 824.31,-1841.21 1841.21,-1841.21zm151.05 2100.9l0 545.22c113.87,-12.94 200.04,-43.08 259.08,-89.88 58.49,-46.75 88.01,-109.49 88.01,-187.02 0,-71.39 -27.09,-128.04 -81.85,-170.47 -54.78,-42.48 -142.74,-75.1 -265.24,-97.85zm-269.48 1190.7l0 -405.5c-9.87,0 -24.03,0.61 -43.71,1.84 -20.32,1.26 -34.45,1.87 -44.3,1.87 -247.38,0 -444.29,-45.58 -591.37,-137.24 -147.08,-91.1 -220.92,-211.07 -220.92,-359.99 0,-97.24 30.8,-175.99 91.71,-236.31 61.52,-59.69 141.5,-89.82 239.96,-89.82 86.78,0 158.17,25.2 214.78,75.69 55.98,50.46 84.3,112.59 84.3,187.04 0,57.87 -18.45,104.01 -55.39,139.72 -37.55,35.66 -91.66,57.2 -162.43,65.85 57.82,39.37 125.5,68.29 204.31,87.33 78.14,18.49 172.89,27.7 283.06,27.7l0 -619.67c-308.31,-56.61 -529.24,-138.46 -663.37,-246.12 -133.53,-107.72 -200.6,-255.99 -200.6,-444.9 0,-199.37 77.55,-362.46 231.99,-488.63 155.07,-126.15 365.54,-197.5 631.98,-212.89l0 -246.77 269.48 0 0 250.44c244.95,14.17 438.78,66.46 582.18,155.73 143.37,89.82 215.38,202.41 215.38,338.43 0,81.87 -27.09,148.33 -81.24,199.99 -54.16,51.68 -124.33,77.55 -210.46,77.55 -85.56,0 -154.46,-23.38 -208,-69.56 -53.51,-46.13 -79.99,-105.23 -79.99,-177.23 0,-41.81 9.87,-78.14 30.15,-107.66 20.3,-30.17 51.05,-54.78 91.7,-73.88 -46.78,-26.42 -98.46,-46.75 -155.67,-60.26 -56.65,-14.17 -118.2,-20.94 -184.04,-20.94l0 594.43c303.38,55.37 524.3,137.83 661.54,247.99 137.24,110.14 206.14,258.45 206.14,446.14 0,200.6 -78.77,364.26 -235.66,490.42 -156.95,126.15 -367.39,193.83 -632.02,203.69l-1.82 405.5 -267.67 0zm-1.87 -2391.89c-111.39,12.31 -193.85,38.77 -246.75,81.26 -53.53,41.81 -80.01,101.5 -80.01,177.83 0,73.23 26.48,132.3 78.81,175.99 52.88,43.71 135.95,75.67 249.83,96l-1.87 -531.07zm120.31 -1207.37c1186.79,0 2148.87,962.08 2148.87,2148.87 0,1186.79 -962.08,2148.87 -2148.87,2148.87 -1186.79,0 -2148.87,-962.08 -2148.87,-2148.87 0,-1186.79 962.08,-2148.87 2148.87,-2148.87z"/>
   <path class="fil0" d="M9172.23 8961.49l11.09 75.75 -45.78 0c-22.61,16.59 -52.35,15.71 -74.78,0l-170.29 0c-22.46,15.73 -52.19,16.59 -74.8,0l-45.78 0 11.09 -75.73 -10.42 -61.33 15.77 0c0,-2.9 0,-5.82 0,-8.72 0,-106.75 -119.93,-268.83 -194.66,-337.99 -71.79,-66.44 -164.23,-121.39 -264.77,-121.39 -21.92,0 -43.73,2.62 -65.08,7.52 -75.2,17.25 -143.71,62.06 -199.71,113.89 -74.69,69.16 -194.62,231.24 -194.62,337.97 0,2.9 0,5.82 0,8.72l15.79 0 -10.44 61.37 11.11 75.69 -45.82 0c-22.61,16.57 -52.35,15.71 -74.77,0l-339.47 0c-22.46,15.73 -52.17,16.59 -74.8,0l-45.78 0 11.09 -75.73 -10.4 -61.33 15.75 0c0,-2.9 0,-5.82 0,-8.72 0,-106.77 -119.95,-268.87 -194.68,-338.03 -71.79,-66.44 -164.21,-121.35 -264.75,-121.35 -21.96,0 -43.79,2.62 -65.16,7.54 -75.14,17.25 -143.63,62.02 -199.61,113.83 -74.73,69.16 -194.66,231.26 -194.66,338.01 0,2.9 0,5.82 0,8.72l15.79 0 -10.44 61.37 11.09 75.69 -45.8 0c-22.63,16.57 -52.35,15.71 -74.78,0l-339.47 0c-22.44,15.73 -52.17,16.59 -74.78,0l-45.8 0 11.11 -75.73 -10.42 -61.33 15.77 0c0,-2.9 0,-5.82 0,-8.72 0,-106.75 -119.93,-268.83 -194.62,-337.99 -71.79,-66.44 -164.23,-121.39 -264.79,-121.39 -21.9,0 -43.67,2.62 -65.04,7.5 -75.2,17.25 -143.73,62.06 -199.75,113.91 -74.69,69.14 -194.64,231.24 -194.64,337.97 0,2.9 0,5.82 0,8.72l15.79 0 -10.44 61.37 11.09 75.69 -45.8 0c-22.61,16.57 -52.35,15.71 -74.77,0l-202.35 0c-22.46,15.73 -52.19,16.59 -74.8,0l-45.78 0 11.09 -75.73 -10.42 -61.33 15.77 0c0,-2.9 0,-5.82 0,-8.72 0,-106.73 -119.91,-268.81 -194.62,-337.97 -71.79,-66.46 -164.25,-121.41 -264.79,-121.41 -21.94,0 -43.77,2.62 -65.16,7.54 -75.16,17.25 -143.63,62.04 -199.61,113.85 -74.71,69.16 -194.62,231.24 -194.62,337.99 0,2.9 0,5.82 0,8.72l15.75 0 -10.42 61.31 11.11 75.75 -45.8 0c-22.61,16.59 -52.35,15.71 -74.78,0l-339.49 0c-22.44,15.73 -52.17,16.59 -74.8,0l-45.78 0 11.09 -75.73 -10.4 -61.33 15.75 0c0,-2.9 0,-5.82 0,-8.72 0,-106.77 -119.95,-268.87 -194.68,-338.03 -71.79,-66.44 -164.21,-121.35 -264.75,-121.35 -21.96,0 -43.79,2.62 -65.19,7.54 -75.12,17.27 -143.59,62.04 -199.55,113.83 -74.73,69.16 -194.66,231.26 -194.66,338.01 0,2.9 0,5.82 0,8.72l15.77 0 -10.42 61.31 11.09 75.75 -45.78 0c-22.61,16.59 -52.35,15.71 -74.8,0l-339.49 0c-22.44,15.73 -52.17,16.59 -74.78,0l-45.78 0 11.09 -75.73 -10.42 -61.33 15.77 0c0,-2.9 0,-5.82 0,-8.72 0,-106.75 -119.93,-268.83 -194.62,-337.99 -71.79,-66.44 -164.23,-121.39 -264.77,-121.39 -21.92,0 -43.69,2.62 -65.06,7.5 -75.2,17.25 -143.71,62.06 -199.75,113.91 -74.69,69.14 -194.64,231.24 -194.64,337.97 0,2.9 0,5.82 0,8.72l15.79 0 -10.44 61.37 11.09 75.69 -45.8 0c-22.61,16.57 -52.35,15.71 -74.77,0l-569.59 0 0 -8992.15 543.7 0c16.61,-37.96 59.93,-60.2 100,-33.07 11.92,8.05 19.22,17.62 23.64,28l0.61 -0.04 0.18 1.93c0.39,1.05 0.79,2.11 1.14,3.18l4.44 0 0 24.37c0.93,13.2 0.16,26.86 0.53,39.92 0.18,2.17 0.28,4.28 0.32,6.37l3.04 59.77c21.45,102.27 126.86,241.23 190.87,301.37 71.31,66.93 163.91,123.74 264.69,123.74 20.32,0 40.55,-2.31 60.4,-6.67 77.13,-16.87 147.38,-63.68 204.25,-117.07 64.01,-60.14 169.42,-199.1 190.85,-301.37l3.2 -62.87c0,-0.02 0,-0.04 0,-0.06l0.37 -24.23c0.02,-7.08 -0.04,-14.62 0.32,-22.16l0 -21.11 2.49 0c5.33,-24.59 20.82,-44.95 66.04,-44.87 40.81,0.08 57.64,19.89 64.43,44.81l2.29 0 0 0.06 280.35 0c5.05,-15.19 14.82,-28.59 33.35,-37.77 36.76,-18.19 74.27,0.34 90.59,32.85l2.43 -0.2 0.47 5.11 5.33 0 0 25.18c0.12,1.66 0.18,3.3 0.2,4.95 0.04,5.21 0.08,10.42 0.14,15.63 0.06,6.24 0,12.31 0.18,18.55 0.16,2.17 0.26,4.3 0.3,6.37l3.04 59.63c21.39,102.31 126.88,241.34 190.93,301.51 71.27,66.93 163.9,123.72 264.63,123.72 20.36,0 40.61,-2.33 60.5,-6.69 77.09,-16.87 147.3,-63.64 204.13,-117.03 64.31,-60.34 170.33,-200.2 191.18,-302.61l2.96 -61.33c0,-0.12 0,-0.26 0,-0.37l0.34 -22.32c0.06,-7.68 -0.06,-15.88 0.32,-24.13l0 -21.05 2.49 0c5.29,-24.61 20.76,-44.93 66.04,-44.87 40.83,0.06 57.66,19.87 64.43,44.81l2.33 0 0 0.06 282.27 0c14.74,-34.63 51.32,-56.79 90.69,-38.48 18.07,8.41 28.04,20.07 33.47,33.39l0.28 -0.02 0.08 0.91c0.55,1.38 1.05,2.78 1.5,4.2l4.22 0 0 24.11c0.89,13.38 0.16,27.17 0.49,40.14 0.2,2.43 0.3,4.78 0.32,7.08l2.8 57.87c20.84,102.37 126.84,242.23 191.11,302.59 71.31,66.95 163.91,123.74 264.67,123.74 20.3,0 40.49,-2.31 60.34,-6.65 77.15,-16.87 147.42,-63.7 204.33,-117.11 64.03,-60.14 169.5,-199.18 190.89,-301.47l3.18 -62.75c0,-0.02 0,-0.04 0,-0.06l0.34 -22.32c0.06,-7.62 -0.06,-15.79 0.34,-23.97l0 -21.21 2.51 0c5.31,-24.61 20.78,-44.95 66.06,-44.87 40.79,0.1 57.6,19.89 64.39,44.81l2.31 0 0 0.06 145.35 0c16.59,-37.96 59.91,-60.2 100,-33.07 11.92,8.05 19.22,17.62 23.64,28l0.61 -0.04 0.18 1.93c0.39,1.05 0.79,2.11 1.14,3.18l4.44 0 0 24.37c0.93,13.2 0.16,26.86 0.53,39.92 0.18,2.17 0.28,4.28 0.32,6.37l3.04 59.77c21.43,102.27 126.86,241.23 190.87,301.37 71.29,66.93 163.91,123.74 264.67,123.74 20.34,0 40.57,-2.31 60.42,-6.67 77.13,-16.87 147.38,-63.68 204.25,-117.07 64.01,-60.14 169.4,-199.1 190.85,-301.37l3.2 -62.87c0,-0.02 0,-0.04 0,-0.06l0.37 -24.23c0.02,-7.08 -0.04,-14.62 0.32,-22.16l0 -21.11 2.51 0c5.31,-24.59 20.78,-44.95 66.04,-44.87 40.81,0.08 57.64,19.89 64.41,44.81l2.29 0 0 0.06 282.47 0c16.59,-37.96 59.93,-60.2 100,-33.07 11.94,8.05 19.22,17.62 23.66,28l0.59 -0.04 0.18 1.93c0.41,1.05 0.81,2.11 1.14,3.18l4.46 0 0 24.37c0.91,13.2 0.16,26.86 0.51,39.92 0.18,2.17 0.28,4.28 0.32,6.37l3.06 59.79c21.43,102.27 126.86,241.23 190.89,301.37 71.29,66.93 163.91,123.72 264.65,123.72 20.36,0 40.61,-2.33 60.5,-6.69 77.09,-16.87 147.3,-63.64 204.13,-117.03 64.05,-60.12 169.48,-199.08 190.91,-301.37l3.22 -62.89c0,-0.02 0,-0.04 0,-0.06l0.36 -24.23c0.02,-7.08 -0.02,-14.62 0.32,-22.16l0 -21.11 2.51 0c5.31,-24.59 20.8,-44.95 66.06,-44.87 40.81,0.08 57.64,19.89 64.39,44.81l2.31 0 0 0.06 282.47 0c16.61,-37.96 59.95,-60.18 100,-33.07 11.94,8.05 19.22,17.62 23.64,28l0.61 -0.04 0.18 1.93c0.41,1.05 0.79,2.11 1.14,3.18l4.44 0 0 24.37c0.93,13.2 0.16,26.86 0.53,39.92 0.18,2.17 0.28,4.28 0.32,6.37l3.04 59.77c21.45,102.27 126.84,241.23 190.85,301.35 71.29,66.95 163.9,123.76 264.67,123.76 20.32,0 40.51,-2.31 60.38,-6.65 77.13,-16.87 147.4,-63.68 204.27,-117.09 64.03,-60.14 169.46,-199.1 190.89,-301.37l3.2 -62.87c0,-0.02 0,-0.04 0,-0.06l0.37 -24.23c0.02,-7.08 -0.04,-14.62 0.32,-22.16l0 -21.11 2.51 0c5.31,-24.59 20.8,-44.95 66.04,-44.87 40.79,0.08 57.62,19.89 64.41,44.81l2.29 0 0 0.06 113.3 0c16.61,-37.96 59.95,-60.18 100,-33.07 11.92,8.05 19.22,17.62 23.64,28l0.61 -0.04 0.18 1.93c0.39,1.05 0.79,2.11 1.14,3.18l4.44 0 0 24.37c0.91,13.2 0.16,26.86 0.53,39.92 0.18,2.17 0.28,4.28 0.32,6.37l3.04 59.77c21.43,102.27 126.84,241.23 190.85,301.37 71.29,66.95 163.91,123.74 264.65,123.74 20.3,0 40.49,-2.31 60.32,-6.65 77.17,-16.85 147.46,-63.68 204.37,-117.09 64.01,-60.14 169.42,-199.1 190.87,-301.37l3.2 -62.87c0,-0.02 0,-0.04 0,-0.06l0.37 -24.23c0.02,-7.08 -0.04,-14.62 0.32,-22.16l0 -21.11 2.51 0c5.31,-24.59 20.78,-44.95 66.04,-44.87 40.79,0.08 57.62,19.89 64.41,44.81l2.29 0 0 0.06 538.39 0 0 8992.15 -569.51 0c-22.42,15.73 -52.17,16.59 -74.78,0l-45.8 0 11.11 -75.67 -10.44 -61.39 15.79 0c0,-2.9 0,-5.82 0,-8.72 0,-106.73 -119.95,-268.83 -194.64,-337.97 -71.79,-66.46 -164.25,-121.41 -264.81,-121.41 -21.92,0 -43.75,2.62 -65.16,7.54 -75.14,17.25 -143.63,62.04 -199.61,113.85 -74.69,69.16 -194.62,231.24 -194.62,337.99 0,2.9 0,5.82 0,8.72l15.77 0 -10.42 61.31zm-7304.48 -481.23c53.04,-83.9 118.1,-162.83 188.48,-227.99 149.47,-138.38 336.97,-230.55 543.48,-230.55 52.84,0 105.55,6.14 157.03,17.96 228.08,52.37 445.87,235.84 577.6,440.56 53.02,-83.86 118.06,-162.77 188.4,-227.89 149.51,-138.4 336.99,-230.63 543.56,-230.63 52.74,0 105.35,6.1 156.75,17.88 195.57,44.85 380.2,185.72 508.56,344.56 36.82,-47.18 77.37,-91.77 120.62,-131.81 149.49,-138.42 336.99,-230.63 543.52,-230.63 52.78,0 105.45,6.12 156.89,17.92 228.1,52.33 445.95,235.86 577.72,440.6 53.02,-83.88 118.08,-162.81 188.48,-227.97 149.47,-138.38 336.97,-230.55 543.48,-230.55 52.84,0 105.55,6.14 157.03,17.96 228.08,52.37 445.87,235.84 577.6,440.56 53.02,-83.86 118.06,-162.77 188.4,-227.89 149.49,-138.4 336.99,-230.63 543.54,-230.63 52.72,0 105.37,6.1 156.77,17.88 187.55,43.02 365.02,174.37 492.24,324.81 32.4,-39.78 67.52,-77.55 104.82,-112.06 149.51,-138.4 336.99,-230.63 543.54,-230.63 52.74,0 105.37,6.1 156.77,17.88 218.91,50.16 431.32,222.1 565.94,422.68l0 -7899.07c-51.09,78.36 -112.12,151.76 -177.16,212.81 -149.47,140.35 -337.42,234.95 -545.55,234.95 -49.78,0 -99.45,-5.51 -148.09,-16.16 -190.4,-41.67 -371.87,-176.86 -500.96,-329.74 -31.85,39.29 -66.28,76.7 -102.76,110.95 -149.49,140.35 -337.44,234.95 -545.55,234.95 -49.78,0 -99.47,-5.51 -148.11,-16.16 -230.69,-50.49 -453.17,-238.6 -586.68,-445.81 -52.65,83.31 -117.01,162.06 -186.27,227.06 -149.45,140.33 -337.42,234.91 -545.51,234.91 -49.82,0 -99.55,-5.52 -148.21,-16.2 -230.67,-50.49 -453.09,-238.6 -586.6,-445.77 -52.65,83.27 -116.99,161.98 -186.19,226.98 -149.47,140.37 -337.44,234.99 -545.57,234.99 -49.72,0 -99.37,-5.49 -147.95,-16.1 -197.62,-43.19 -386.3,-187.16 -517.44,-349.69 -36.21,46.63 -76.01,90.93 -118.51,130.84 -149.49,140.35 -337.44,234.95 -545.55,234.95 -49.78,0 -99.47,-5.51 -148.11,-16.16 -230.67,-50.49 -453.17,-238.6 -586.7,-445.81 -52.65,83.31 -117.01,162.06 -186.27,227.06 -149.47,140.33 -337.4,234.91 -545.51,234.91 -49.82,0 -99.55,-5.52 -148.21,-16.2 -230.67,-50.49 -453.09,-238.6 -586.6,-445.77 -52.65,83.27 -116.99,161.98 -186.21,226.98 -149.47,140.37 -337.4,234.99 -545.53,234.99 -49.76,0 -99.39,-5.49 -147.97,-16.1 -223.19,-48.8 -439.51,-226.62 -574.82,-427.69l0 7898.79c51.9,-79.46 113.83,-153.08 179.25,-213.62 149.49,-138.4 336.99,-230.63 543.54,-230.63 52.76,0 105.43,6.12 156.87,17.92 228.12,52.33 445.97,235.86 577.72,440.62z"/>
  </g>
 </g>
</svg>
