<?xml version="1.0" encoding="UTF-8"?>
<!DOCTYPE svg PUBLIC "-//W3C//DTD SVG 1.1//EN" "http://www.w3.org/Graphics/SVG/1.1/DTD/svg11.dtd">
<!-- Creator: CorelDRAW 2018 (64-Bit) -->
<svg xmlns="http://www.w3.org/2000/svg" xml:space="preserve" width="56.2769mm" height="45.7394mm" version="1.1" style="shape-rendering:geometricPrecision; text-rendering:geometricPrecision; image-rendering:optimizeQuality; fill-rule:evenodd; clip-rule:evenodd"
viewBox="0 0 1533.57 1246.42"
 xmlns:xlink="http://www.w3.org/1999/xlink">
 <defs>
  <style type="text/css">
   <![CDATA[
    .fil0 {fill:#D72120}
   ]]>
  </style>
 </defs>
 <g id="Слой_x0020_1">
  <metadata id="CorelCorpID_0Corel-Layer"/>
  <path class="fil0" d="M1234.76 774.11l0 39.27c12.04,-0.55 23.78,-1.63 35.13,-3.23l0 -39.13c-11.42,1.53 -23.15,2.58 -35.13,3.1zm-1173.12 -722.06l1226.34 1.07c3.99,0.01 7.24,3.33 7.22,7.27l-0.22 81.01c-24.39,-5 -50.56,-7.73 -77.81,-7.73 -131.64,0 -238.35,63.4 -238.36,141.61l0 0.01 0 72.79c-49.3,25.94 -80.38,63.83 -80.38,106.02l0 0.01 0 74.43c0,42.2 31.08,80.08 80.38,106.02l0 71.12 6.66 34.98c25.24,62.11 119.39,108.26 231.7,108.26 31.28,0 61.14,-3.59 88.51,-10.09l31.41 -9.12 38.07 -16.38c49.28,-25.94 80.35,-63.82 80.36,-106.01l0.02 -0.01 0 -74.43 -0.02 0c-0.01,-42.2 -31.07,-80.08 -80.36,-106.02l0 -71.13c49.29,-25.95 80.35,-63.82 80.36,-106.01l0.02 -0.01 0 -74.43 -0.02 0c-0.01,-49.76 -43.21,-93.52 -108.55,-118.77l0.26 -95.98c0.09,-32.62 -26.51,-59.37 -59.13,-59.46l-1226.33 -1.07c-32.62,-0.09 -59.38,26.52 -59.46,59.13l-2.31 849.98c-0.09,32.62 26.51,59.37 59.13,59.46l766.34 0.67c-6.62,11.47 -18.83,28.1 -26.16,33.71l150.38 172.03c14.64,-11.65 27.43,-39.88 67.26,-33.24 99.2,16.53 125.73,61.9 223.27,26.54 57.82,-20.96 189.35,-51.18 220.3,-97.79 13.34,-20.08 62.73,-99.16 69.33,-119.18 16.71,-50.67 -25.38,-99.8 -78.91,-83.19 -7.37,2.29 -13.73,6.06 -19.41,10.93 -14.54,-9.52 -33.51,-12.92 -54.2,-6.5 -13.94,4.33 -24.27,13.95 -33.23,26.28 -13.26,-6.1 -29.27,-7.55 -46.46,-2.21 -15.66,4.86 -26.78,16.41 -36.5,30.98 -3.18,-3.54 -7.03,-7.13 -11.65,-10.8 -31.07,-24.69 -93.1,-27.01 -168.76,-42.21 -48.54,-9.76 -97.14,-13.24 -135.37,-2.36 -3.75,1.07 -7.4,2.2 -10.95,3.4l-875.03 -0.76c-3.95,-0.02 -7.24,-3.27 -7.23,-7.26l2.19 -808.33c0.01,-3.99 3.27,-7.24 7.27,-7.22l0.01 -0.01zm1102.84 718.97l0 39.13c11.35,1.59 23.09,2.68 35.13,3.22l0 -39.27c-11.98,-0.52 -23.7,-1.56 -35.13,-3.09zm-70.3 -16.81l0 37.86c10.91,4.35 22.68,8.14 35.15,11.28l0 -38.77c-12.24,-2.89 -24,-6.36 -35.15,-10.36zm-35.14 19.96l0 -35.33c-17.53,-9.24 -32.76,-19.99 -45.08,-31.91l0 0.39c0,25.33 16.89,48.58 45.08,66.85zm316.27 -35.34l0 35.33c28.17,-18.27 45.05,-41.52 45.06,-66.84l0.02 0 0 -0.41c-12.33,11.92 -27.54,22.68 -45.08,31.92zm-35.14 53.23l0 -37.86c-11.15,3.99 -22.89,7.47 -35.13,10.36l0 38.77c12.47,-3.14 24.23,-6.93 35.13,-11.28zm-185.79 -196.73l0 39.27c12.04,-0.55 23.78,-1.64 35.13,-3.23l0 -39.13c-11.42,1.53 -23.15,2.58 -35.13,3.1zm-70.28 -3.08l0 39.13c11.35,1.59 23.09,2.68 35.13,3.22l0 -39.27c-11.98,-0.52 -23.7,-1.56 -35.13,-3.08zm-70.3 -16.81l0 37.85c10.91,4.35 22.68,8.14 35.15,11.28l0 -38.77c-12.24,-2.88 -24,-6.35 -35.15,-10.36zm-35.14 19.96l0 -35.33c-17.53,-9.24 -32.76,-19.99 -45.08,-31.91l0 0.39c0,25.33 16.89,48.58 45.08,66.85zm316.27 -35.35l0 35.34c28.17,-18.27 45.06,-41.52 45.06,-66.84l0.02 0 0 -0.41c-12.33,11.92 -27.54,22.68 -45.08,31.92zm-35.14 53.23l0 -37.86c-11.15,3.99 -22.89,7.47 -35.13,10.36l0 38.77c12.47,-3.14 24.23,-6.93 35.13,-11.27zm-242.91 37.66c16.36,50.2 99.8,88.42 200.29,88.42 112.23,0 203.2,-47.66 203.2,-106.46 0,-27.3 -19.62,-52.2 -51.88,-71.04 -25.22,62.13 -119.38,108.29 -231.71,108.29 -43.72,0 -84.69,-7 -119.91,-19.21zm200.29 -482.1c112.23,0 203.2,47.66 203.2,106.46 0,58.79 -90.97,106.45 -203.2,106.45 -112.23,0 -203.21,-47.66 -203.21,-106.45 0,-58.8 90.98,-106.46 203.21,-106.46zm17.6 247.68l0 39.26c12.04,-0.55 23.78,-1.63 35.13,-3.23l0 -39.13c-11.42,1.53 -23.15,2.58 -35.13,3.1zm-70.28 -3.09l0 39.13c11.35,1.59 23.09,2.68 35.13,3.22l0 -39.26c-11.98,-0.52 -23.7,-1.56 -35.13,-3.09zm-70.3 -16.81l0 37.86c10.91,4.35 22.68,8.13 35.15,11.27l0 -38.77c-12.24,-2.89 -24,-6.36 -35.15,-10.36zm-35.14 19.96l0 -35.34c-17.53,-9.24 -32.76,-19.99 -45.08,-31.91l0 0.39c0,25.32 16.89,48.58 45.08,66.85zm316.27 -35.35l0 35.33c28.17,-18.27 45.05,-41.52 45.06,-66.84l0.02 0 0 -0.41c-12.33,11.92 -27.54,22.68 -45.08,31.92zm-35.14 53.23l0 -37.86c-11.15,3.99 -22.89,7.47 -35.13,10.36l0 38.77c12.47,-3.14 24.23,-6.93 35.13,-11.27zm-354.7 -51.41c-32.26,18.84 -51.89,43.75 -51.89,71.06 0,58.8 90.98,106.46 203.21,106.46 100.51,0 183.96,-38.24 200.3,-88.45 -35.23,12.21 -76.2,19.2 -119.92,19.2 -112.32,0 -206.47,-46.15 -231.7,-108.27zm320.22 455.79c10.88,-2.59 21.37,-5.65 31.4,-9.12l-31.4 9.12zm31.4 -9.12l-31.41 9.12 0.01 0 31.4 -9.12zm-12.49 101.72c-7.55,13.87 -15.41,28.33 -25.33,41.33 -6.52,8.55 -17.63,13.98 -31.03,17.39 5.25,-9.17 10.22,-18.51 15.5,-27.9 4.7,-8.37 12.96,-22.94 21.23,-28.26 1.18,-0.76 2.4,-1.36 3.74,-1.77 5.86,-1.82 11.24,-1.95 15.9,-0.79zm83.8 -22.63c-11.08,18.74 -21.12,40.67 -35.5,59.53 -9.84,12.91 -23.97,18.63 -39.6,21.06 11.54,-16.35 20.29,-33.7 30.14,-51.21 4.7,-8.37 12.96,-22.94 21.23,-28.27 1.18,-0.76 2.4,-1.36 3.74,-1.77 7.67,-2.38 14.5,-1.87 20.01,0.65zm-642.94 85.31l179.47 210.46 -49.07 41.84 -179.47 -210.47 49.07 -41.84zm448.07 -0.54c-31.07,-0.34 -109.63,-4.23 -130.41,-7.01 -25.7,-3.19 -32.1,34.62 -5.77,36.56 75.71,9.03 116.66,8.65 185.46,5 53.47,-2.83 102.75,11.31 139.74,-37.19 13.78,-18.07 23.46,-37.52 34.51,-57.17 4.7,-8.37 12.96,-22.94 21.23,-28.26 1.18,-0.76 2.4,-1.36 3.74,-1.77 24.08,-7.48 39.84,13.52 32.46,35.91 -5.14,14.59 -21.51,40.08 -29.81,53.91 -11.33,18.87 -23,37.99 -35.18,56.33 -21.44,32.28 -162.42,69.03 -201.95,83.36 -27,9.78 -50.75,14.32 -78.98,7.77 -16.91,-3.93 -33.82,-10.64 -50.24,-16.31 -24.85,-8.58 -49.23,-15.39 -75.21,-19.72 -25.87,-4.31 -49.91,0.5 -70.9,16.21l-103.72 -118.65c5.96,-8.55 11.1,-17.2 14.18,-24.01 16.97,-37.46 47.65,-57.53 92.95,-70.44 35.32,-10.05 82.34,-4.08 117.81,3.06 33.91,6.8 126.57,13.9 152.91,34.84 16.22,12.91 3.34,44.91 -12.8,47.59zm-712.35 -512.13l0 221.4c0,17.64 -14.45,32.1 -32.1,32.1l-0 0c-17.64,0 -32.1,-14.45 -32.1,-32.1l0 -221.4c0,-17.65 14.44,-32.09 32.1,-32.09l0 0c17.66,0 32.1,14.47 32.1,32.09zm252.11 -91.09l0 312.49c0,17.65 -14.44,32.1 -32.1,32.1l-0 0c-17.66,0 -32.1,-14.45 -32.1,-32.1l0 -312.49c0,-17.66 14.44,-32.1 32.1,-32.1l0 0c17.66,0 32.1,14.45 32.1,32.1zm-501.37 152.25l0 160.24c0,17.64 -14.46,32.1 -32.1,32.1l-0.01 0c-17.64,0 -32.1,-14.45 -32.1,-32.1l0 -160.24c0,-17.65 14.44,-32.09 32.1,-32.09l0.01 0c17.65,0 32.1,14.48 32.1,32.09zm124.63 -29.95l0 190.19c0,17.64 -14.44,32.1 -32.1,32.1l0 0c-17.66,0 -32.1,-14.45 -32.1,-32.1l0 -190.19c0,-17.65 14.45,-32.09 32.1,-32.09l0 0c17.65,0 32.1,14.47 32.1,32.09zm252.11 -62.41l0 252.61c0,17.65 -14.44,32.1 -32.09,32.1l0 0c-17.66,0 -32.1,-14.45 -32.1,-32.1l0 -252.61c0,-17.65 14.44,-32.1 32.1,-32.1l0 0c17.65,0 32.09,14.46 32.09,32.1zm-428.08 -14.12c0,0 177.5,16.4 366.14,-67.93 97.25,-43.48 138.7,-73.07 156.04,-91.53 37.46,-39.89 16.09,-54.6 -71.37,-31.05 -114.79,30.9 -164.98,-6.66 -164.98,-6.66 0,0 0.61,24.41 61.81,48.56 61.2,24.15 -42.42,64.38 -163.63,101.8 -121.22,37.43 -184.01,46.81 -184.01,46.81zm474.17 -361.98c9.82,0.02 17.76,8.02 17.75,17.84 -0.02,9.82 -8.01,17.76 -17.84,17.75 -9.84,-0.04 -17.76,-8.01 -17.74,-17.84 0.02,-9.82 8.01,-17.76 17.84,-17.75zm-60.27 867.92l115.82 0.32c10.98,0.03 19.95,-8.92 19.99,-19.88l0 0c0.03,-10.96 -8.91,-19.96 -19.89,-20l-115.81 -0.32c-10.96,-0.03 -19.96,8.92 -20,19.88l0 0c-0.03,10.96 8.92,19.95 19.89,20z"/>
 </g>
</svg>
