<?xml version="1.0" encoding="UTF-8" standalone="no"?>
<!-- Created with Inkscape (http://www.inkscape.org/) -->

<svg
   version="1.1"
   id="svg1"
   width="100"
   height="100"
   viewBox="-3 -5 80 80"
   xmlns="http://www.w3.org/2000/svg"
   xmlns:svg="http://www.w3.org/2000/svg">
  <defs
     id="defs1" />
  <g
     id="layer-Pr26"
     transform="translate(-1293.5029,-94.235427)">
    <path
       id="path756"
       d="m 93.259,165.6454 h 3e-4 c 0.1576,0 0.2868,-0.129 0.2868,-0.2869 0,-1.1517 0.1185,-3.2874 0.9905,-4.0708 0.5828,-0.5225 1.2838,-0.6492 2.0154,-0.6492 0.1576,0 0.2863,-0.1295 0.2863,-0.2868 v 0 c 0,-0.1577 -0.129,-0.2869 -0.2863,-0.2869 -0.7495,0 -1.4131,-0.1349 -2.0188,-0.6664 -0.8856,-0.7767 -0.9871,-2.9047 -0.9871,-4.0539 0,-0.1573 -0.1292,-0.2863 -0.2868,-0.2863 h -3e-4 c -0.1573,0 -0.2863,0.1287 -0.2863,0.2863 0,1.1518 -0.1191,3.2882 -0.9913,4.0709 -0.5836,0.5232 -1.2827,0.6494 -2.0146,0.6494 -0.1576,0 -0.2868,0.1292 -0.2868,0.2869 v 0 c 0,0.1576 0.1287,0.2868 0.2868,0.2868 0.7484,0 1.4128,0.1352 2.018,0.6662 0.8856,0.7769 0.9879,2.9049 0.9879,4.0538 0,0.1582 0.1287,0.2869 0.2863,0.2869"
       style="fill:#e42424;fill-opacity:1;fill-rule:evenodd;stroke:none"
       transform="matrix(1.3333333,0,0,-1.3333333,1173.8584,323.1496)" />
    <path
       id="path757"
       d="m 143.5671,152.6587 h 3e-4 c 0.1273,0 0.2311,-0.104 0.2311,-0.2313 0,-0.9303 0.0961,-2.6546 0.8002,-3.2873 0.4708,-0.4218 1.0366,-0.5244 1.6273,-0.5244 0.127,0 0.2314,-0.1044 0.2314,-0.2316 v 0 c 0,-0.1273 -0.1046,-0.2316 -0.2314,-0.2316 -0.6049,0 -1.1412,-0.1089 -1.6299,-0.538 -0.7154,-0.6274 -0.7976,-2.3457 -0.7976,-3.2735 0,-0.1273 -0.1041,-0.2316 -0.2311,-0.2316 h -3e-4 c -0.1275,0 -0.2313,0.1043 -0.2313,0.2316 0,0.9298 -0.0963,2.6552 -0.8005,3.2871 -0.4714,0.4223 -1.036,0.5244 -1.627,0.5244 -0.1268,0 -0.2316,0.1043 -0.2316,0.2316 v 0 c 0,0.1275 0.1043,0.2316 0.2316,0.2316 0.6046,0 1.1412,0.1094 1.6296,0.5383 0.7152,0.627 0.7979,2.3453 0.7979,3.2734 0,0.1273 0.1038,0.2313 0.2313,0.2313"
       style="fill:#e42424;fill-opacity:1;fill-rule:evenodd;stroke:none"
       transform="matrix(1.3333333,0,0,-1.3333333,1173.8584,323.1496)" />
    <path
       id="path758"
       d="m 126.9935,124.6992 h 3e-4 c 0.1273,0 0.2311,-0.1043 0.2311,-0.2313 0,-0.9304 0.096,-2.655 0.8002,-3.2874 0.4705,-0.422 1.0366,-0.5241 1.6273,-0.5241 0.1273,0 0.2313,-0.1049 0.2313,-0.2319 v 0 c 0,-0.1275 -0.1043,-0.2313 -0.2313,-0.2313 -0.6049,0 -1.1409,-0.1094 -1.6299,-0.5383 -0.7152,-0.6273 -0.7976,-2.3459 -0.7976,-3.2734 0,-0.1273 -0.1038,-0.2313 -0.2311,-0.2313 h -3e-4 c -0.1272,0 -0.2313,0.1037 -0.2313,0.2313 0,0.9297 -0.0961,2.6549 -0.8005,3.287 -0.4711,0.4224 -1.0357,0.5247 -1.6271,0.5247 -0.1267,0 -0.2313,0.1038 -0.2313,0.2313 v 0 c 0,0.1273 0.1044,0.2319 0.2313,0.2319 0.6047,0 1.1416,0.1089 1.6297,0.5377 0.7152,0.6271 0.7979,2.3457 0.7979,3.2738 0,0.1272 0.1038,0.2313 0.2313,0.2313"
       style="fill:#e42424;fill-opacity:1;fill-rule:evenodd;stroke:none"
       transform="matrix(1.3333333,0,0,-1.3333333,1173.8584,323.1496)" />
    <path
       id="path759"
       d="m 116.7931,171.6738 c 0.2146,0.0451 0.4382,-0.0408 0.5666,-0.2225 0.1758,-0.2483 0.116,-0.5959 -0.1321,-0.7719 -0.0374,-0.0269 -0.0782,-0.0482 -0.1298,-0.0683 l -0.0269,-0.01 -0.0122,-0.003 c -0.0184,-0.005 -0.0372,-0.01 -0.0559,-0.013 l -0.0567,-0.0114 c -3.5603,-0.8767 -7.0455,-2.2898 -9.9884,-4.5096 -4.4688,-3.371 -7.6465,-8.3075 -7.0421,-14.078 0.1831,-1.7464 0.7529,-3.6303 1.7799,-5.0732 0.7146,-1.0045 2.232,-2.4397 3.3624,-1.165 1.3907,1.5667 1.1996,3.1958 0.9751,5.1225 -0.3169,2.7215 0.2121,5.9522 1.6835,8.286 1.6841,2.6708 4.0451,4.6964 6.9769,5.8813 4.8748,1.9692 10.4715,1.2892 15.1481,-0.9037 5.313,-2.4911 9.5454,-6.8976 11.8332,-12.3004 0.1089,-0.1896 0.0961,-0.4297 -0.0362,-0.6072 -0.1826,-0.244 -0.531,-0.2945 -0.7756,-0.1128 -0.0357,0.0267 -0.0678,0.0576 -0.1035,0.1006 l -0.0221,0.0281 -0.006,0.0111 c -0.01,0.0153 -0.0196,0.0306 -0.0278,0.0464 l -0.0278,0.0491 c -1.9341,3.1155 -4.3546,5.993 -7.3752,8.1059 -4.7474,3.3208 -10.6588,4.7963 -16.0557,2.1161 -1.4686,-0.7294 -2.9466,-1.8292 -3.8951,-3.1839 -0.4935,-0.7047 -1.116,-1.9275 -0.663,-2.7876 0.7183,-1.3663 4.176,-0.6916 5.2639,-0.1335 2.6232,1.4199 6.2215,2.0705 9.1423,1.3298 3.0606,-0.7767 5.717,-2.3962 7.7497,-4.8189 3.3792,-4.0278 4.4617,-9.5602 3.8214,-14.6855 -0.7277,-5.8226 -3.6102,-11.2093 -8.0416,-15.0548 -0.1472,-0.163 -0.3788,-0.2245 -0.5894,-0.1528 -0.2885,0.0978 -0.4444,0.4144 -0.3461,0.7033 0.0145,0.0428 0.0343,0.0836 0.0658,0.1324 l 0.0181,0.0266 0.008,0.009 c 0.0114,0.0144 0.0233,0.0278 0.036,0.0408 l 0.0372,0.0403 c 2.3641,2.8006 4.3577,5.9941 5.4303,9.5196 1.0797,3.5492 1.2895,7.3462 -0.0176,10.8654 -0.9433,2.541 -2.6419,4.8107 -4.8571,6.38 -3.6678,2.5996 -7.6295,2.5928 -10.8777,-0.6602 -1.146,1.0131 -2.6283,1.5213 -4.1785,1.4451 -3.2636,-0.1605 -5.7799,-2.9367 -5.6192,-6.2005 0.0516,-1.05 0.3768,-2.0597 0.9516,-2.9401 1.1506,-1.7615 3.1417,-2.7828 5.2498,-2.6793 2.0166,0.0995 4.3662,1.4658 5.0513,3.4401 -1.8978,0.4567 -4.348,-0.0167 -5.79,-0.4547 0,0 0.5003,2.1708 1.9825,4.4856 6.4783,0.1794 13.0626,-0.9301 13.5652,-8.5731 0.2067,-3.1456 -0.515,-6.1818 -2.1883,-8.8592 -2.7887,-4.4625 -7.7088,-7.1965 -12.7857,-8.1722 -5.7628,-1.1078 -11.7765,-0.0304 -16.8035,2.9956 -0.1981,0.0893 -0.3299,0.2928 -0.3268,0.5125 0.004,0.305 0.2565,0.5508 0.5493,0.5468 0.0511,0.001 0.1007,-0.006 0.1548,-0.0201 l 0.0218,-0.007 0.0111,-0.004 c 0.0224,-0.008 0.0442,-0.017 0.0655,-0.0278 l 0.0482,-0.0215 c 3.3956,-1.3839 7.0458,-2.289 10.7311,-2.2232 5.771,0.1034 11.3975,2.3655 14.2035,7.6691 0.773,1.4618 1.3335,3.2326 1.3099,4.9 -0.0119,0.8648 -0.2239,2.2351 -1.1021,2.6677 -1.7365,0.8515 -3.996,-1.9089 -4.6842,-3.2335 -1.3224,-2.5458 -3.7531,-5.0151 -6.433,-6.0852 -2.9293,-1.1695 -6.0364,-1.4212 -9.1012,-0.6567 -5.106,1.2733 -9.227,5.1074 -11.7241,9.6344 -2.8292,5.1295 -3.6655,11.2011 -2.3434,16.9066 0.0238,0.2183 0.1741,0.404 0.3864,0.47 0.2911,0.0899 0.6029,-0.0743 0.6936,-0.3648 0.0136,-0.0437 0.0216,-0.0887 0.025,-0.1434 l 8e-4,-0.0284 -8e-4,-0.005 c -3e-4,-0.0201 -0.0014,-0.0389 -0.004,-0.0578 l -6e-4,-0.0173 -0.0034,-0.0134 -0.0037,-0.0317 c -0.2667,-3.6575 6e-4,-7.4118 1.2022,-10.8967 1.827,-5.2993 5.5298,-9.8376 11.2125,-11.0474 1.7178,-0.3657 3.6853,-0.4057 5.3747,0.1247 0.9825,0.3087 2.6612,1.1339 2.3261,2.4168 -0.4541,1.7436 -2.9982,2.5543 -4.5592,2.8293 -2.7901,0.4906 -5.8365,2.0265 -7.6595,4.2176 -2.02,2.4268 -3.217,5.2986 -3.4376,8.4527 -0.3668,5.2446 2.0095,10.3572 5.5403,14.1276 4.0111,4.2831 9.5094,6.9465 15.3545,7.4531"
       style="fill:#e42424;fill-opacity:1;fill-rule:evenodd;stroke:none"
       transform="matrix(1.3333333,0,0,-1.3333333,1173.8584,323.1496)" />
  </g>
</svg>
