<?xml version="1.0" encoding="UTF-8" standalone="no"?>
<!-- Created with Inkscape (http://www.inkscape.org/) -->

<svg
   version="1.1"
   id="svg1"
   width="219.79797"
   height="27.753593"
   viewBox="0 0 219.79797 24.753594"
   xmlns="http://www.w3.org/2000/svg"
   xmlns:svg="http://www.w3.org/2000/svg">
  <defs
     id="defs1" />
  <g
     id="layer-Pr26"
     transform="translate(-1391.8438,-118.88241)">
    <path
       id="path748"
       d="m 172.3385,141.8312 c 0.3385,1.4882 0.9029,2.6867 1.7646,3.958 2.59,-0.0201 5.0678,0.0766 7.7601,-0.6454 0.1511,-3.0535 -0.2557,-5.5381 -2.5713,-7.8647 -1.8,-1.8085 -4.0442,-2.6439 -6.5869,-2.6439 -2.5429,0 -4.7868,0.8354 -6.5868,2.6439 -1.8091,1.8178 -2.6294,4.0852 -2.6294,6.6387 0,2.554 0.8203,4.8209 2.6294,6.6387 1.8,1.8088 4.0439,2.6439 6.5868,2.6439 2.5628,0 4.7702,-0.8345 6.5875,-2.645 -0.0423,-0.0215 -0.0851,-0.0445 -0.1287,-0.0686 -0.3966,-0.2183 -0.7915,-0.4654 -1.1804,-0.7387 l -0.03,-0.021 c -0.1398,-0.0964 -0.2767,-0.1967 -0.4105,-0.3013 -0.4184,-0.3189 -0.8274,-0.6667 -1.2214,-1.0383 -0.9927,0.9371 -2.2116,1.326 -3.6165,1.326 -1.5545,0 -2.8805,-0.4762 -3.9254,-1.6441 -1.0565,-1.1812 -1.5159,-2.5721 -1.5159,-4.1516 0,-1.5749 0.4569,-2.9628 1.5142,-4.1383 1.0466,-1.1636 2.3752,-1.635 3.9271,-1.635 1.5517,0 2.8806,0.4714 3.9272,1.635 0.6471,0.7194 1.0695,1.5182 1.2996,2.391 -1.6837,0.1052 -3.4928,0.0584 -5.5933,-0.3393"
       style="fill:#2b2a29;fill-opacity:1;fill-rule:evenodd;stroke:none"
       transform="matrix(1.3333333,0,0,-1.3333333,1173.8584,323.1496)" />
    <path
       id="path749"
       d="m 301.0711,139.7795 c 1.0573,1.1755 1.5143,2.5634 1.5143,4.1383 0,1.5795 -0.4595,2.9704 -1.516,4.1516 -1.0448,1.1682 -2.3712,1.6441 -3.9257,1.6441 -1.5542,0 -2.8806,-0.4762 -3.9251,-1.6441 -1.0565,-1.1812 -1.516,-2.5721 -1.516,-4.1516 0,-1.5749 0.4567,-2.9628 1.514,-4.1383 1.0465,-1.1636 2.3754,-1.635 3.9271,-1.635 1.552,0 2.8809,0.4714 3.9274,1.635 z m 2.6595,10.777 c 1.8093,-1.8178 2.6297,-4.0847 2.6297,-6.6387 0,-2.5535 -0.8204,-4.8209 -2.6297,-6.6387 -1.8,-1.8085 -4.0439,-2.6439 -6.5869,-2.6439 -2.5429,0 -4.7866,0.8354 -6.5866,2.6439 -1.809,1.8178 -2.6294,4.0852 -2.6294,6.6387 0,2.554 0.8204,4.8209 2.6294,6.6387 1.8,1.8088 4.0437,2.6439 6.5866,2.6439 2.543,0 4.7869,-0.8351 6.5869,-2.6439"
       style="fill:#2b2a29;fill-opacity:1;fill-rule:evenodd;stroke:none"
       transform="matrix(1.3333333,0,0,-1.3333333,1173.8584,323.1496)" />
    <path
       id="path750"
       d="m 238.3362,147.255 -1.8876,-4.5496 h 3.7751 z m -3.3529,-8.1028 -1.705,-4.1185 h -4.0394 l 7.6791,17.7682 h 2.9268 l 7.6291,-17.7682 h -4.0544 l -1.7271,4.1185 z"
       style="fill:#2b2a29;fill-opacity:1;fill-rule:evenodd;stroke:none"
       transform="matrix(1.3333333,0,0,-1.3333333,1173.8584,323.1496)" />
    <path
       id="path751"
       d="m 195.8176,147.255 -1.8876,-4.5496 h 3.7752 z m -3.3528,-8.1028 -1.7051,-4.1185 h -4.0396 l 7.6793,17.7682 h 2.9265 l 7.6292,-17.7682 h -4.0544 l -1.7269,4.1185 z"
       style="fill:#2b2a29;fill-opacity:1;fill-rule:evenodd;stroke:none"
       transform="matrix(1.3333333,0,0,-1.3333333,1173.8584,323.1496)" />
    <path
       id="path752"
       d="m 324.6511,141.7252 v 11.0767 h 3.6862 v -17.7682 h -3.5941 l -7.5651,11.1827 v -11.1827 h -3.6861 v 17.7682 h 3.5906 z"
       style="fill:#2b2a29;fill-opacity:1;fill-rule:evenodd;stroke:none"
       transform="matrix(1.3333333,0,0,-1.3333333,1173.8584,323.1496)" />
    <path
       id="path753"
       d="m 280.7963,152.8019 v -17.7682 h -3.6864 v 17.7682 z"
       style="fill:#2b2a29;fill-opacity:1;fill-rule:evenodd;stroke:none"
       transform="matrix(1.3333333,0,0,-1.3333333,1173.8584,323.1496)" />
    <path
       id="path754"
       d="m 261.58,147.2902 3.7193,5.5117 h 4.4651 l -5.9317,-8.5062 6.4907,-9.262 h -4.5581 l -4.2253,6.2405 -4.206,-6.2405 h -4.5565 l 6.4857,9.2798 -5.987,8.4884 h 4.5649 z"
       style="fill:#2b2a29;fill-opacity:1;fill-rule:evenodd;stroke:none"
       transform="matrix(1.3333333,0,0,-1.3333333,1173.8584,323.1496)" />
    <path
       id="path755"
       d="m 215.6516,138.543 h 7.3066 v -3.5093 h -10.993 v 17.7682 h 3.6864 z"
       style="fill:#2b2a29;fill-opacity:1;fill-rule:evenodd;stroke:none"
       transform="matrix(1.3333333,0,0,-1.3333333,1173.8584,323.1496)" />
  </g>
</svg>
